<svg version="1.1" id="Layer_1" xmlns="http://www.w3.org/2000/svg" xmlns:xlink="http://www.w3.org/1999/xlink" x="0px" y="0px"
	 viewBox="0 0 500 30" style="enable-background:new 0 0 500 30;" xml:space="preserve">
<style type="text/css">
	.st01{fill:#9e6cff;}
</style>
<path id="icons" class="st01" d="M2.2,18.5l10.9,2c4.1-0.4,8.2-0.1,12.1,0.9c1,0,2,0,3.1,0c5.5,0.1,11,0.7,16.4,1.3l2.3,0.3
	c3.9-0.9,8-1.1,12-0.5c1.2-0.7,2.5-1.1,3.9-1.2c3.1-0.1,6.2-0.1,9.4,0c0.9,0,1.7-0.2,2.5-0.6c1.4-0.8,3.1-0.8,4.5-0.1
	c2,0.9,4.4,0.8,6.3-0.2c1-0.5,2.2-0.6,3.3-0.5c4.2,0.1,8.4,0.5,12.6-0.3c1.4-0.2,2.7,0,4,0.6c1.5,0.6,3.1,0.9,4.7,0.9
	c3.4-0.3,6.8,0,10,0.9c1.2,0.3,2.4,0.3,3.6,0c1-0.3,2-0.8,2.9-1.4c0.6,0.1,1.2,0.1,1.8,0.3c4.6,1.3,9.5,1.2,14-0.3
	c0.5-0.2,1.1-0.3,1.7-0.3c2.5,0.5,4.5-0.8,6.9-1.5c1.8,2.5,4.3,3,7.8,2.2c2-0.3,4-0.2,5.9,0.1c3,0.3,6,0.4,8.8-0.6l0,0l4.4,0.2
	l3-1.8l3.8,1.5c1.3-1.6,1.4-1.6,3.6-0.9c0,0,4.5-0.8,6.5-0.4c3.7,0.8,7.5,0.8,11.3,1.3c3.5,0.5,7,0.9,10.5-0.1
	c0.7-0.2,1.5-0.1,2.2,0.2c1.7,1.5,2.8-0.8,4.8-0.1c0.5,0.2,1,0.5,1.5,0.8c2.3,1.4,4.6,1.8,7,0.2c0.5-0.2,1-0.1,1.4,0.1
	c2.3,1.7,2.9-0.6,4.2-1c0.7,1.1,1.9,1.8,3.2,1.8c3.5,0,3.5,0.1,6.8-2c3.1,1.8,3.1,1.5,6.8,1.6c4.7,0.1,9.5-1,14.1,0.5
	c2,0.7,4.2,0.2,6.4-0.5c3.9-1.3,8-1.7,12,0c3.6,1.6,7.3,1.7,10.4-1.2c5.1,2.8,10.3,2.1,15.6,0.3c2.8,1.5,6,2,9.1,1.2
	c1.7-0.3,3.4-0.4,5.1-0.6c3-0.3,5.9,0.4,8.8,0.6c3.4,0.3,6.8,0.2,10.1,0.3c3.8-1.9,8.2-0.8,12.3-1.2c1.8-0.1,3.6,0,5.4,0.3
	c5,0.7,10,1.3,14.9-0.1c0.4-0.1,0.8-0.2,1.2-0.1c2.9,1.1,5.9,0.4,8.8,0.4c5.8,0,11.5,1.3,17.4,0.5c5,1.5,10.3,0.3,15.4,1.3
	c2.2,0.4,4.7-0.2,7.1-0.3c1.2-0.1,2.4-0.1,3.5-0.1c2.4,0.2,4.8,0.7,7.1,0.7c6.4-0.1,12.9-0.4,19.3-0.5c4.2-0.1,8.5,0,12.7,0.1
	c7.3,0.1,14.5,0.2,21.8,0.5c3,0.1,5.1-0.7,5.9-2.9c-0.7-1.6-2.2-2.3-4.1-2.5c-2.6-0.4-5.2-0.7-7.8-1c-9.4-0.8-18.9-1-28.3-1.2
	c-3.4-0.1-6.9-0.2-10.3-0.3c-4.3-0.1-8.6,0.8-13,0c-1.7-0.3-3.8,0.3-5.3-0.3c-3.1-1.1-6.3-1.1-9.5-1.2c-4.8-0.2-9.6-0.4-14.4-0.4
	c-5-0.1-9.9-1.3-14.9-0.4c-1.8-0.8-3.9-0.1-5.7-0.6c-5.2-1.4-10.7-1.1-15.7,0.8c-1.3-0.5-2.6-1-3.9-1.2c-7.7-0.8-15.5,0.2-23.3-0.3
	c-4.8,1-9.6,0.3-14.4,0.3c-1.7,0-3.4,0.5-4.9,1.3c-0.5,0.1-1,0.2-1.5,0.1c-0.5-0.6-1.1-1.3-1.8-2.1c-3,0.7-5.7,1.9-8.4,0.2
	c-0.8-0.2-1.6-0.2-2.3,0c-1.2,0.2-2.3,0.1-3.5-0.1c-3.3-0.2-6.7,0.3-10-0.4c-0.6,0-1.2,0.1-1.7,0.4c-1.3,0.5-2.7,0.6-4.1,0.3
	c-1.8-0.2-3.6-0.2-5.4-0.3l-2.1,1.4c-4.3-2.4-4.3-2.4-7.9-0.5c-0.5-0.1-1.1-0.1-1.7-0.2c-3-0.4-5.9-0.8-8.9-1.3s-5.9,1-8.9-0.1
	c-1-0.2-2-0.1-2.9,0.3c-1.1,0.6-2.3,0.6-3.4,0c-2.1-0.8-4.7-0.3-7-0.5c-2.8-0.3-5.4-1-8.2,0c-0.8,0.3-1.9-0.1-2.9-0.2
	c-5.8-0.4-11.7-1.5-17.4-1.1c-6.2,0.4-12.5-0.3-18.6,0.4c-1.2,0-2.4-0.1-3.6-0.3c-1.4-0.1-2.8-0.4-4.2-0.4c-8-0.1-16,0.4-24.1,0.1
	c-0.6,0-1.2,0-1.8,0.1c-3.4,0.6-6.8,0.2-10.2,0c-2.4-0.1-4.8-0.3-7.3-0.2c-5.8,0.1-11.7,0.3-17.5,0.4c-1.2-0.1-2.4-0.2-3.5-0.4
	c0.2,0.2,0.3,0.5,0.4,0.7c0,0.1-0.1,0.3-0.1,0.4c-0.3-0.1-0.7-0.2-0.7-0.3s0.1-0.5,0.2-0.8l-17.5-0.1C93.2,9.2,81.3,9.1,69.5,9
	c-0.4,0-0.7,0-1.1-0.2c-2.7-0.1-5.5-0.4-8.3-0.7h0c-4.9,0.7-9.8,0.9-14.8,0.7C39.6,8.6,33,8.3,27.4,6.6c-1,0.4-2.2,0.5-3.3,0.4
	c-1.8,0-3.6,0.1-5.4,0.3C14.4,7.8,10,8.2,5.6,8.7C4.4,8.8,3.2,8.9,2.2,9C-0.4,12.3,0.8,15.3,2.2,18.5z M173.7,19.4l-0.3,1l-0.6-0.8
	L173.7,19.4z"/>
</svg>