<svg version="1.2" xmlns="http://www.w3.org/2000/svg" viewBox="0 0 500 500" width="500" height="500">
	<title>Nuovo progetto</title>
	<style>
		.s0 { fill: #bd96d1 } 
	</style>
	<path id="&lt;Path&gt;" class="s0" d="m21.3 186.9q0.4-0.6 0.2-1.4c1.3-1.9 0-4.6 1.9-6.4l-0.1 0.1c1.1-1.3 1-2.9 0.8-4.5q-0.1-1.2 0.2-2.3c0.6-1.9 1.3-3.8 2.9-5.1 1.1-1.2 0.9-2.7 1-4.2q0-1.1 0.4-2.2c0.4-1.5 0.6-3.1 1.2-4.6q0.6-1.1 1.6-1.9 1.1-0.7 2.3-1.2c2.9-2.1 5.2-2.3 8.3 0.6 6.9 6.6 9 6.2 15-1.1 1.8-2.2 3.4-4.9 7-3.5 0.9 5.6 4.4 9 9.4 11.2 0.6 1.2 0.8 2.5 0.8 3.8q-0.1 1.3-0.4 2.5c-0.5 1.5-1.1 3-1.6 4.6q-0.3 1.2-0.8 2.2c-0.7 1.5-1.9 2.5-3.1 3.5-1.7 1.6 0 4.5-2.1 6l0.1-0.2c-1.1 1.4-0.6 3.3-1.7 4.7-3.2 2.2-1 6.7-3.8 9.1-2 1.1-3-0.3-4-1.5-0.5-0.5-0.8-0.8-0.9-0.9 0.4 0.3 0.8 0.8 1.2 1.3 1.7 3.1 3.9 6 2.7 9.8q-0.6 1.3-1.8 1.9c-5.6-0.2-11.1-0.2-16.6-1.5-3.2-0.8-6.5-0.9-8.8 2.4q-1 0.9-2.2 1.5c-0.9 0.3-1.9 0.5-2.7 0.9-5.9 3.2-10.2 3.7-9.3-5.2 0.1-1.2-0.6-2.5-0.4-3.7 0.9-2.2-0.5-4.9 1.4-6.8v0.1c2-2.3-0.2-5.7 1.9-8zm-1.8 101.7q0.2-0.7-0.2-1.4c-2-2.3 0.2-6.1-3-8-0.7-1.3-1-2.8-1-4.4 1.7-4.2 1.1-8.1-1.6-11.7q-0.8-2.4-0.7-5c2.3-10.7 1.9-21.4 0.5-32.1-0.6-2.2-0.4-4.4 0.5-6.5q0.8-1.5 2.4-1.7 1.5 0.4 2.3 1.8c1.7 6.5 0.4 13.5 6.5 19.3 3.5 3.4 0.6 9.8-4.9 13.9 5 1.6 7.5-0.8 10-3.1 8.4-3 4.8 6.8 8.9 8.4q0.9 1 1.6 2.2c1.6 6.7-3.8 3.6-7.2 4.8 3-0.8 5.2 1.8 6.9 0.5 7.4-5.9 13.3-2 19.3 2.4q1.9 0.8 3.2 2.4 0.7 1.1 1.1 2.4c0.5 1.6 0.7 3.3 0.9 5q0.4 1.2 0.9 2.3c0.6 1.5 1.1 3.1 1.6 4.6q0.5 1.1 0.8 2.3c0.5 1.6 1 3.2 1.5 4.8q0.3 1.3 0.2 2.6c-0.2 1.4-0.7 2.6-1.8 3.5-2.7 1.8-7.4 1.4-5.8 7.1 0.9 3.3-0.9 6.8-5.1 6.7-4.6-0.2-3.7-4.4-4.5-7.4-0.7-3.3 3.6-8-4.5-9.6-4.7-0.9-5.7-0.2-6.9 2.9-2.6 6.4-6.7 11.1-13.2 13.6q-1.3 0.2-2.6-0.2c-2-1.3-2.6-3.5-3.5-5.5q-0.4-1.2-0.7-2.5c-0.3-2-0.7-4-1.4-5.9q-0.4-1.2-0.5-2.5c-0.2-2 1.4-4 0-6zm176.6 135.9q0.7 0.5 1.5 0.4c0.9 0.3 1.3 1.1 1.4 2-0.9 4-3 9-7.2 6-6.3-4.5-6.8 0.4-8.9 3.5-6.2 3.2-14 0.8-19.8 6.5-2.4 2.4-5.2-0.6-5.6-4.1-0.6-4.4-0.4-9.1-4.9-11.9 1.2-6.3 8.3-2.6 10.6-7-5.5-0.6-8.5 3-11 7.5-0.1 2-0.7 3.6-3.1 3.6-3.1-2.7-3.9-6.2-4.6-9.2-2.3 3.4-2.3 7.7 0.3 12.2 1.4 2.5 2.9 5.5 0.4 8.1-2.8 2.9-5.2-0.2-7.7-1.3-9-7.3-9.5-16.3-1.4-24.2-2.2 1.1-4.7 2.3-4.6 5.2 0.3 7.7-3.8 8.5-9.9 6.8-7.1-2-4.4-6.4-2.8-10.6 0.3-0.9 0.5-1.9 0.8-2.8q0.4-1.2 1.2-2.3c1.5-1 3-0.6 4.5-0.1 0.9 0.2 1.8 0.1 2-1.1 0-0.8 0-1.4 0-2.2 0.1-0.8 0.2-1.6 0.3-2.3 1.4-6.5 5.9-10.3 11.4-13.3q1.3-0.3 2.6-0.2 0.6 0.2 1.2 0.3c1.1 0.4 2.2 0.9 3.3 1.6q1 0.6 1.7 1.6 0.4 1.1 1.1 2c1.1 1.1 3 0.7 3.9 2.2l-0.1-0.2c0.8 0.5 1.4 1.2 2.2 1.8h0.1c0.6 0.9 1.5 1.1 2.5 1.1q1 0 1.9 0.4c0.9 0.3 1.8 0.8 2.6 1.2q0.9 0.3 1.7 0.8 0.9 0.4 1.7 0.9 0.9 0.3 1.8 0.8 1.3 0.7 2.7 1.4 0.9 0.4 1.8 1 0.8 0.7 1.4 1.7 0.3 0.4 0.6 0.9c0.8 0.8 2 0.9 2.8 1.7 0.8 0.7 1.7 0.9 2.7 0.7q1 0.1 2 0.6 0.9 0.4 1.7 0.8 0.9 0.4 1.8 0.9 1.3 0.7 2.6 1.4 0.9 0.3 1.8 0.8 1.4 0.7 2.8 1.4 0.9 0.6 1.5 1.5c0.7 0.8 1.9 0.9 2.7 1.5zm59 9.8q2.9 0 5.9 0c1.6-1.2 3.3-1.8 5.3-1.5q1.4 0.3 2.6 1.1c1.2 1.5 2.3 3.5 2 5.3-0.6 3.5-1.2 5.5 3.9 4.5 3.2-0.6 3.6 3 3.8 5.6 0.1 0.9 0 1.8 0 2.7 4.1 7 10.4 10.1 18.3 10.6 5.1 0.3 10.5-1.9 15.2 1.8 2 1.5 2.3-0.9 3.5-1.7 6-4.2 11.6-1.2 13.2 6.7-1.5 3.5-6.4 2.7-7.9 6.2 0 0.8-0.1 1.6-0.3 2.4-0.6 2-0.5 4 0.1 6-0.1 1-0.4 1.7-1 2.4-1.2 0.8-2.4 1.1-3.8 1.3-2.7 0.3-5.3 0.5-7.9 1.4q-1.9 0.5-4 0.7c-2.7 0.2-5.5 0.5-8.1 1.4q-3.5 0.8-7.1 0.6c-1.4-0.1-2.7-0.6-4-1.3-1.4-0.7-3.2-0.7-4.6-1.5-10.8-6.5-10.9-8.1-0.8-15.8 1.8-1.4 2-3.1 2.8-6.2-4.9 4.1-10.2 2.1-15 3.7-3-2.8-7.3-4.7-6.8-9.9 0.4-0.9 2.3-0.5 1.8-2.2 0.4-1.6-0.1-2.9-1.1-4.2-1.3-2-3.5-2.7-5.4-4-6-4.1-5.9-6.7 0.4-12.4 1.4 0.5 2.4 1.4 3.5 2.3-0.3-1.6-1.8-1.3-2.7-1.9-1.4-0.6-2.5 0.1-3.5 0.8-1.9 1.5-3.4 4.7-6.3 2.8-2.9-1.8-4-4.8-1.9-8.2q1.2-0.9 2.7-1.2c2.6-0.5 5 0 7.2 1.7zm21.6 17.9q0-1 0-2c3.9-4.9-3.9-11.4 2.3-16q1-0.9 2.2-1.5 1.7-0.1 3.4-0.2 1.1-0.9 2.6-0.9c3.2-0.3 6.7 1 9.4-1.9 1.7-1.2 3.6-1.4 5.6-1.3 2.7 0.1 5.4 2.4 8.3 0.4q1.8-0.2 3.5-0.3 1.2-0.8 2.6-0.8c1.8 0 3.6-0.2 5.3 0.4 1.9 7.3 4.3 1.7 6.5 0.3q0.6-1.1 1.7-1.6 2.8-0.1 5.6-0.2c2.2-1.5 4.5-2.1 7-0.8q1.1 1 1.2 2.4c-0.7 1.3-1.9 2-3.2 2.4-4.2 1.8-2.1 4.5-0.8 6.9 1.3 2.3 4 4.2 1.7 7.4-0.9 0.9-0.4-0.8-0.8 0.4-3.1 7.8-7.7 8.1-16.3 1.2 0.2-1.3-2 0.9-0.9 0.2 1.2 5.8-1.9 9.8-5.4 13.7-4.8 0-9.2-2.3-14.1-2.7-6.1-0.5-4.7-4-0.8-6.8 0.9-0.7 1.7-1.7 3-1.7 0.6 0 1 0.7 1.6 0.7q-0.1-0.8-0.1-1.6 1-3.5-2.1-5.1c-1.7-1-1.2 0.4-1.2 1.2-0.2 2 1.7 4.1-0.4 5.9-11.1 5.4-12 5-14.5-6.6-4.7 2.2-5 11.1-12.9 8.5zm-68.6-438.1q1 0.2 1.9-0.3c1.7-1 3.6-0.7 5.4-0.5 3.3 4.7 9.9 4.7 14 0 1.4-1.7 3-2.5 5.1-1.9 1.3-0.3 0 2 1.5 1.6 0.5-1.5 1.4-2.6 2.8-3.3q1-0.5 2.2-0.3c1.3 1.4 2.4 0.2 3.7-0.2q1.2 0 2.4 0c3.6 0.1 6.7 0.8 2.3 4.4-3.5 2.8-7.6 4.6-11.6 6.6 0 1.6-2.5-2.3-1.9 0.8-1.1 1.5-2.1 3-2 4.9q-0.9 0.8-2.2 0.9c-1.7-0.2-3 0.6-4.3 1.6q-1.2 0.3-2.4 0.3c-3.1-0.3-5.6 1.6-8.6 2-2.3 0-4.5 0-6.8 0-10.5 1.4-12.1 0-13.7-11.3q0.6-1.2 1.6-2.1c2.7-1.7 5.8-1.3 8.6-1.9q1.1-0.5 2-1.3zm-25.7 422.4c0.4-2.2 1-4.3 1-6.5 0.1-1.5-3.8-2.6-1.1-4.4 1.6-1 3.5 0.9 5 2 1.3 1 2.3 2.2 3.6 3.2 2.5 1.8 3.4 1.4 5.5-2.1 0.5-0.8 1.2-1.4 1.8-2.1 1.3-1.2 2.6-1 3.8 0.1 1.6 1.8 4.2 0.2 5.9 1.8q0.8 0.5 1.7 0.2c1.4 1.2 3.5 0.4 5 1.4 1.1 0.8 1.9 1.8 2.2 3.2-4.9 7.1-11.4 12.9-16.7 19.7-0.9 1-2 1.8-3.3 2.1-3.2 0.1-4.8-2.1-6.6-4.1q-0.7-1.2-0.4-2.6c5.2-7.8 0.2-9.9-6.3-11.1q-0.6-0.4-1.1-0.8zm53-416.6c3.8-4.3 9.6-5.5 14.3-9.3-1.8-0.3-3.3-0.5-4.9-0.8-0.3-0.7 0-1.3 0.8-1.5q15.3 0 30.7 0c1.7 1.2 3.7 0.6 5.5 1.2q0.8 0.8 0.8 1.7 0 0.9-0.2 0.9c-6.8 4.4-13.6-1.4-19.9 0.1 11.8 0.6 11.8 0.6 13.6 6.2-5 1.7-10.4-0.9-15.3 1.4h-1l-0.9 0.3c-2.4 1.7-5.6-0.2-8.1 1.7l-0.8-0.1-0.9 0.3c-1.7 1.5-4.3 0.2-6 1.8l-1-0.1-0.8 0.3c-1.3 1-3 0.8-4.3 1.7q-0.8-0.2-1.6 0.3-1.3 1.1-2-0.5c-2.5-3 1.2-3.8 2-5.6zm24.3 6.1q0.8 0.2 1.5 0.3c10.4-1.6 20.8-2.4 31.3-2.1 2.5-0.5 4.9-0.8 7.4 0q1.3 0.6 2.3 1.8 1.8 0 3.6 0c1.5 0.9 3.1 1 4.7 0q1.6-0.1 3.2-0.1c3.1 2.3 9-1.3 10.4 4.8-3.8 3.9-9.2 0.8-13.5 3q-1.6 0-3.2-0.5c-5.7-4.4-12.9-1-18.9-3.5q-10.8-0.1-21.6-0.1c-2.6 1.7-5.2 1.6-7.8 0l0.1 0.1c-1.3-1.5-1.5-2.7 0.5-3.7zm-20.3-15.8c-0.8 1.8-2.1 3.1-4 3.8-2.9-1.3-5.2-0.9-5 1.1 0.3 4.6-2.2 6.2-6.1 7.4-0.2-1-0.5-1.9-0.7-2.8-0.2-1-0.2-2.2-1.3-2.1-0.8 0-1.6 1-2.1 1.7-0.7 1.3-0.5 3.2-3 4 0.7-3.6-1.3-6.4-1.5-9.6q-0.8-0.8-0.3-1.2 0.3-0.3 0.7-0.3 1.9-0.2 3.7-0.4c2.1-1.5 5.1 0.3 7.1-1.9q0.9-0.9 2.1-1.4c1.8-0.5 3.6-0.6 5.4-0.4 1.8 0.5 3.6 0.8 5 2.1zm194.4 69q-0.4 0.5-0.2 1.1c-4.8 0.8-4.8 0.8-11.6-7.1l-0.2-0.2q-0.6-1.1-1.7-1.8l-0.2-0.2q-0.7-1.1-1.7-1.8l-0.2-0.2q-0.8-1-1.7-2c-0.7-0.6-1.5-1.2-1.9-2.1l0.1 0.1q-1.1-0.9-1.2-2.3c0.4-1.5 1.4-2.3 2.8-2.6q0.7 0.1 1.4 0.1 0.6 0.4 1.2 0.7 0.6 1.2 1.4 2.3h-0.1q1.2 0.9 2.1 2l-0.1-0.1c0.8 0.7 1.5 1.3 2 2.2l-0.2-0.1c1.4 0.8 1 2.8 2.2 3.8 0.7 0.7 1.4 1.3 1.9 2.2l-0.1-0.1c0.8 0.4 1.4 1.2 2.2 1.7l0.2 0.1c1.3 1.3 2.9 2.4 3.6 4.3zm-17.6-18q-1 0.9-1.9 1.9c-0.7 0.7-1.4 0.6-1.9-0.2v0.1c-1.2-1-3-0.7-4-2l0.1 0.1c-0.8-0.5-1.4-1.2-2.1-1.9-1.4-2.3-1.4-4 1.8-4.3q0.9 0.5 1.8 0.7l0.2-0.2q0.9 0.6 1.9 1 0.5 0.2 1 0.4 1.1 0.3 2.1 0.8 1 0.6 1.6 1.6 0.3 1.2-0.6 2zm-82.3-49.2c-0.3 1.2-1.1 1.9-2.2 2.3q-0.8-0.4-1.6-0.4 0.8-1 1.6-2.1 1.1 0.1 2.2 0.2zm-316.3 191.2q0.8-0.4 1.6-0.7c0.7 2.4 4.7 4.2 1.1 7.3-0.5 0.4 0 1.2 0.9 1.3 0.3 0 0.6-0.1 0.9-0.3 1-0.7 2.3-1.2 3-2.2 2.1-2.6 4-0.7 6-0.1 0.4-1.5 0.8-3 1.4-4.5 0.6-1.6 1.7-2.6 3.7-1.7 2 1 4.1 1.8 6.4 0.7 2.9-1.5 4.6 4.2 8.5 1.1 2.1-1.6 5.2 1.6 7.7 2.7q-0.1 6.8-0.1 13.5-0.1 1.9-0.2 3.7c-2.1 2.4-1.1 5.5-1.9 8.1-0.9 0.9-1.8 1.9-3.1 2.4q-1.3 0.4-2.5-0.1c-3.8-3.4-7.1 0.6-10.6 0.8-5.8 0.2-7.6-1.9-6.1-7.3 0.3-0.7 0.6-1.4 0.7-2.1-0.7-1.8-2.5-1.7-3.8-2.5-2.1-2.2-6.1-3.7-3.2-8 0.4-0.4 0.9-0.7 1.5-0.7q-0.9-0.2-1.5 0.7c-3.8 4.3 1.5 5.7 2.7 8.5 3 2.8 3.8 6.1 1.4 9.5-3 4.3-2.8 8.9-1.9 13.6 0.8 0.8 1.8 1.6 0.9 2.9-0.3 2.4 0.7 5.3-3.6 5.4-2.7 0-5 2.8-8.1 1.4-1.4-0.7-2-1.4-2-2.8 0-2.1 0.5-4.5 2.5-4.9 6.6-1.4 2.6-6.8 3.9-10.1 0.6-1.5-1.8-2.4-3.5-2.2-2.2 0.2-3-0.8-2.9-2.8q0-6.8 0.1-13.6c1-1.3 1.6-2.6-0.2-3.8q0-4.9 0-9.8 0.1-1.7 0.3-3.4zm31.6-80.8q0.8-1.1 1.5-2.3c1.5-0.7 2.1-2.1 2.3-3.6q0.8-0.2 1.7-0.3c4.5 4.2 5.5 9.5 4.3 15.4-0.6 0.8-1.9-0.2-2.2 0.4-0.4 0.9 1.2 0.8 1.3 1.7 0.3 5.2 1.5 9.8 6.8 12.1q0.6 1.3 0.4 2.7-0.4 0.5-0.8 1.1c-3.4 0.2-4.9 2.9-6.4 5.2-0.6 1 0.6 3.2-0.9 3.4-3.5 0.2-5.4 3.8-8.8 3.9-1.1 0-1.4-1.1-1.7-2-0.6-1.8-1.7-1.5-2.9-0.7-1.4 0.9-2.4 0.7-2.8-1-0.3-1.3-0.2-2.7-0.7-3.8-0.9-1.7-2-2.4-3.7-0.6-0.9 0.8-2.3 1-3.5 1.5q0.1-1.9 0.2-3.7c1.5-1 1.8-2.4 1.9-4 1.4-1 1.8-2.4 1.9-4 1.4-1 1.8-2.4 1.9-4 1.5-0.8 1.9-2.3 2-3.9 1.5-0.8 1.9-2.3 2.1-3.8h-0.1c0.5-0.8 1.2-1.4 1.7-2.2l0.1-0.1c1.3-0.9 0.9-2.8 2.1-3.8l-0.1 0.1c1.5-0.8 2-2.2 2.4-3.7zm25.4 36.9q-0.5 0.8-0.4 1.7c-0.3 1-0.9 1.2-1.7 0.6-0.8-0.6-1.4-1.5-2.2-1.6-7.6-1.1-8.6-2.8-5.8-10.4 2.5-2.2 5.7-3.5 7.4-7 1.6-3.3 5.1-4.6 8.8-2.3 0.5 1.9 0.9 3.7-0.7 5.3l0.1-0.1c-1 1.2-0.7 3-1.9 4.1-1.8 1.5-0.2 4.3-2 5.9v-0.1c-1.1 1.1-0.8 2.8-1.6 3.9zm-14.1 47.1q-0.8 0.3-1.7 0.4-1.1-6-2.2-12 1.9 0.9 3.8 1.8 0.5 0.6 1 1.1c0 2.3 0.7 4.7-0.7 6.8q-0.4 0.9-0.2 1.9zm-3.8-11.6c-3.9-1.9-4.3-2.3-3.7-5.2 0-0.4 0.7-1.1 1.1-1.1 0.5 0 1.1 0.5 1.5 0.9 0.4 0.4 0.7 1.1 0.8 1.7 0.2 1.2 0.2 2.4 0.3 3.7zm7.3-7.9q0.2 1 0.4 1.9c-1.9 1.6-1.9 3.8-1.7 6q-0.5 0.8-0.2 1.7c-0.4 0.8-0.9 1-1.6 0.6l-0.5-0.5c0.1-2.2 0.2-4.5 0.4-6.7 0.1-1.9 1.6-2.6 3.2-3zm16.5-46.8q-2.6 0.9-5.3 1.7c-1.8 0.6-2.1 1.7-2.1 3.6 0.2 3.9 0 3.9-2.9 4.1-1.9 0.2-3.8 0.1-5.7 0.1q0-1 0-2c0.6-10.1 1.2-10.9 9.7-15.1-2.3 0.5-4.8 0.4-7.2 0.7-2.3 0.4-5.7 2.7-6.8-0.6-1.3-3.9 2.1-5.7 5.3-6.8 4-1.3 7.8-3.1 10.4-2.8 3.1 0.2 1.3-1.8 1.4-0.5q0 0.6-0.7 0.6c-1.6-0.1-3.3 0.2-4.4-1.4-0.7-1.4 1.5-1.3 1.3-2.5-1 0.8-1.8 1.7-2.7 2.6q-1.5 1.1-3.3 1.9c-2.4 0.9-4.9 2.5-7 0-2.1-2.4-0.3-4.8 1.1-6.9 1.3-2.2 2.4-4.5 4-6.6 8.7-2.8 17.6-2.2 26.5-1.9q1.3-0.5 2.6-0.6c2.1 0.7 2.7 2.3 2.4 4.3q-0.3 1.3-1.4 2.1l0.1-0.1c-0.5 0.9-1.2 1.5-2 2.1h0.1c-1.1 1.1-0.7 3-2.1 4l0.1-0.2q-0.8 1.1-1.7 2.1-0.6 0.6-0.4 1.4c-0.2 1-0.9 1.8-1.5 2.5q-0.5 0.7-0.4 1.5c-0.3 1-1 1.7-1.5 2.5q-0.6 0.7-0.5 1.6c-0.8 1.3-0.5 3.2-2 4.3l0.1-0.2q-0.4 0.9-1.2 1.5c-0.6 0.7-1 1.6-1.6 2.4zm111.7-120.2c1.1-0.1 1.8-0.8 2.2-1.7q1.8-0.2 3.7-0.3c-0.7 1.8-1 3.2 0.1 5.3 2.2 4.4 4.4 7.7 10 6.5 0.6-0.1 1.3 0.1 1.9 0.2 0.5 0.8 0.2 1.3-0.7 1.5l-0.7-0.1-0.8 0.2c-3.6 2.6-8.2-0.5-11.8 2v0.1c-1.1 1.1-2.9 0.8-4 1.9-0.6 0.7-1.2 1.4-2.1 1.9l0.1-0.1c-0.5 0.9-1.2 1.6-2.2 2l0.2-0.2c-0.8 1.6-2.8 1.1-3.7 2.4h-0.1q-1 0.9-1.9 1.9h-0.1q-0.9 0.8-2.1 1.3-1 0.7-2.2 1.3-0.6 0-1.3 0c-3.5-0.4-7-0.9-10.2-2.6-1.3-1.5-1.5-3.2-1-5.1q0.6-1.2 1.7-1.8c0-0.8 2.9 1.1 1.2-1.4-3-4.3 0.5-6.2 3.3-8.3q0.9-0.8 2-1.4c1.3-0.7 3-0.5 4-1.8 0.8-0.8 1.9-1 2.7-1.8 3.9-0.7 8.2 0.9 11.8-1.9zm-27.5 35.3c-1.3 2.7-3.3 4.6-5.9 6q-1.1 0.9-2 1.8-3 2-6 3.9c-3.3 0-5.2 2.3-7.4 4.2-1.9 1.3-3.7 2.8-5.5 4.1q-0.9 0.6-1.6 1.3-1.2 0.2-1.1 1.4 0 0 0.2 0.9c-0.9 1.8-2.3 3.2-4.2 4q-1 0.9-1.9 1.9-2.9 2-5.9 4.1-0.6-0.3-1.3-0.6c-4.5-5.4 0.8-9 2.7-13 2.1-4.5 5.5-8 9.5-10.9q1.2-0.7 2.5-1c2.5-0.6 5.1-0.6 7.5-1.6 2.5-0.9 4.6-2.7 7.2-3.2 0.9-0.1 2.4 1.8 2.4-0.9q1.4-2.9 4.7-3.4c2.1 0 4.3-0.8 6.1 1zm127.6-29.2c-0.9 1-2.3 1.1-3.4 1.7-4.1 1.9-7.1-4.5-11.7-1-3.1 2.4-7.6 0.7-11.5 0.9-1.7 0.1-3.2-0.1-4.5-1.4l-0.3-0.7c1.3-0.9 3-0.6 4.1-1.7q1 0.2 1.9-0.3c1.4-0.9 3-0.8 4.5-1.5q1.6-0.2 3.2-0.4c2.7-2.5 5.9-1.6 9-1.7q1.3 0.1 2.5 0.6 1.1 0.5 2.1 1.3 0.5 0.4 1 0.7c0.9 0.8 1.8 1.5 2.6 2.4q0.3 0.6 0.5 1.1zm-125.6 17.4c4.2-1.8 7.9 0.3 11.6 1.9q0.8 0.9 0.3 1.4-0.4 0.4-0.8 0.4-0.8 0-1.4 0.5-1.1 0.8-2.3 1.6l-0.6-0.1-0.7 0.1c-1.5-1.1-3.2-0.9-4.9-0.9q-1.3-0.2-2.1-1.3-0.3-1.3 0-2.6 0.4-0.5 0.9-1zm-31.5 33.4c1.6-3.3 4-5.5 7.7-6.1q0.5 0.5 1 1-0.4 0.6-0.8 1.2c-0.8 0.6-1.4 1.3-2.1 1.9h0.1c-0.7 0.7-1.4 1.4-2.2 1.9q-0.9 0.1-1.8 0.5-1.1 0.7-1.9-0.4zm7.7-6.1c0.9-2 2.5-3.3 4.2-4.6 1.5-1 2.8-0.9 3.7 0.8h0.1c-0.7 0.7-1.3 1.4-2.1 2q-1.9 1.1-3.9 2.3l-0.8 0.5-0.8-0.6zm80.7-40.9q-3-0.2-5.9-0.3c2.3-2.8 4.9-3.6 8.1-1.7q0.8 1.3-0.6 1.7h-0.9zm5.9-1.9q-0.9-0.2-1.9-0.4c1-1.5 2.5-1.8 4.2-1.6 0.5 0.8 0.3 1.3-0.6 1.6q-0.9-0.1-1.7 0.4zm-153.4 282.8c0.1 1.6 0.5 3.1 1.9 4 0.1 1.6 0.5 3.1 2 4 0.1 1.5 0.7 2.9 2.1 3.7 1 1 1 2.4 1.2 3.6 1.2 3.1-3.7 5.4-1.3 8.7-2.9 4.2-5.6 8.6-8.8 12.6-1.4 1.7-2.7 4.1-5.4 3.1-3.2-1.1-1.8-4.3-2.1-6.7-0.7-4.4 4.5-6 4.8-9.9 0.6-0.3 0.8-0.8 0.4-1.4-0.1-0.3-0.4-0.4-0.8-0.4-1-1.4-0.7-2.6 0.4-3.8 0.9-0.8 1.5-1.9 1.7-3.2-0.8 0.9-0.7 2.3-1.7 3.2-3.2 5.6-12.4 9-16.6 4.7-5.2-5.6-7.3-3.2-9.6 1.6-9.5-5.3-7.1-18.2-16.6-22.6q-0.3-0.6-0.7-1.2c2.9-2.5 5.9-5 8.7-7.7 1.1-1.1 1.9-2.6 2.9-3.9l6.3-9.3c1.8-2.4 1.8-0.2 1.8 0.8 0.2 2.5 0.6 3.5 3.5 2.2 2.8-1.3 4.1 2.3 6.4 2.9-0.1 0.5-0.1 1.1-0.5 1.5-3.3 3.9 0.5 8.1-0.5 12.1 0 0.2 0.9 0.9 1.5 1 0.6 0.1 1.6 0.1 1.8-0.3 0.8-1.3 1.7-2.7 2-4.2 0.3-1.5-1.8-1.5-2.5-2.5-1.6-2.2-1.2-3.4 0.9-4.8 3-1.8 6.2-1.6 9.4-1.8 0.7-0.8 1.2-0.6 1.6 0.3l-0.1-0.1c2 1.5 0.3 4.3 2.1 5.9 1.2 1.1 0.8 2.9 1.9 4 0.1 1.6 0.5 3 1.9 3.9zm-45-61q-1-1-2-2c-1.2-9.4 5.1-11.8 12.4-13.7 3.8-1 7.5 0.9 11.2 0 1.3-1.1 2.6-1.2 3.9 0 1 2.6-0.4 5.8 1.8 8.2q0.1 2.8 0.2 5.5c0.2 4.7-1 9.7 1.9 14q-0.2 0.9 0.2 1.8c1.1 2 1.3 3.9-0.2 5.9-1.6-0.1-3.3 0.1-4.9-0.2-1.2-0.3-2.4-0.9-3.3-1.7-1.3-1.2 0.5-4.6-2.3-4.4-1.5 0.1-2.6 3-4.2 3.5-3.1 0.9-6.4 4-9.7 0.1-1.2-1.5-3-0.1-4.6 0.1-1.4 0.2-2.4-0.6-3.1-1.7-0.3-0.5-0.5-1.3-0.3-1.8 0.2-0.5 1-1.1 1.4-1 2.5 0.3 5 0.9 7.6 1.1 3.4 0.2 2.4-2 1.8-3.9 0.5-1.3 4.1-0.3 2.5-3.2-1-0.1 0.2 0.3 0 0.4-0.2 1.5-1.5 2-2.5 2.8-3.9-0.5-5.2-2.8-4.6-6.5 0.5-2.7-1.3-3-3.2-3.3zm-13.8-33.4c1.1-0.1 2.3-1.6 3.3-0.2 0.3 0.5-0.3 1.8-0.8 2.4-0.6 0.7-1.5 1.1-2.3 1.6q-0.2-1.1-0.4-2.2-0.2-0.9 0.2-1.6zm74.8 202.3c-0.3-1-0.9-1.7-2-2q-0.9-1-1.8-2.1-1-1-2-2-0.9-1-1.9-2-0.9-1-1.9-1.9-0.9-1-1.8-2l-0.1 0.1q-1.2-0.6-1.3-2c0.3-2.9-2.3-4.3-3.4-6.4 1.7-4.1 6.3-5.1 8.8-8.8 1.6-2.5 6.3-5.1 9.4-0.1 1.3 4.7-0.7 8.6-2.2 12.6-0.1-4.4 9.7-6.7 2.2-12.5-1.8-2.9-2.5-5.8 1.6-6.8 4.6-1.2 9.1-0.5 11.9 3.9 2.8 4.5 5.5 8.8 11.6 8.9q0.6 0.1 1.3 0.3 0.6 0.3 1.2 0.6 1 0.9 1.7 2c1.4 2.6 2.3 5.3 2.7 8.2 0.2 0.8-0.9 1.1-0.8 1.8 0.1 0.6 0.6 0.4 1-0.3q0.6 0.1 1.1 0.1 0.4 0.4 0.7 0.8 0.4 1 1.2 1.8 0 1 0 2c-0.9 1.4-2.8 0.8-3.9 1.9q-1.9-0.9-3.9-1.9c-0.2 3.8 1 7.9-2.9 10.8-0.9 0.7 0.3 1.3 1 1.9 2.1 2.1 5.2-0.2 7.4 2 0.6 0.7 2.2-0.4 2-1.3-1.3-5.7 3.8-8.5 5.7-12.6 0.5-0.9 2.2-1.3 3.4-1.8 0.2-0.1 0.7 0.1 0.8 0.3 0.4 0.5 1 1.4 0.8 1.6-1 1.6-2.3 3-2.9 4.9-0.6 1.6-3.8 1-3.6 3.9 0.3 3.8-1.4 7.6 0.1 11.5 1.2 2.8 3 4.2 5.9 4.3 2.2 5.3 0.6 7.5-5 5.6-4.5-1.5-9-3-13.9-2.8q-1.3-0.1-2.7-0.3-0.4-0.7-1.3-0.7c-1.1-0.3-2-1-2.6-2l0.1 0.1c-0.8-0.5-1.5-1.2-2.1-1.9-0.7-0.6-1.3-1.3-2-1.9q-0.9-1-2-1.8l-0.1-0.1c-0.9-1.4-2.9-0.8-3.7-2.3v0.1c-0.9-0.3-1.5-1.1-2-1.9l0.2-0.1q-1-1-2-2-0.9-1-1.9-2-1-1-2.1-1.9-1-1-2-1.9-1-0.9-2-1.9zm27 22c1-1.4 2.2-2.3 4-2 3.9 0.7 7.9 1.2 11.6 3.3 3.6 2.1 3.9 1.6 4.5-3.6 0.9 0.9 1.8 1.9 2.8 2.7 0.4 0.3 1.3 0.4 1.8 0.2 0.4-0.3 0.9-1 0.9-1.6 0-0.9-0.2-1.9-0.6-2.7-1-1.8-2.3-3.3-3.1-5-2.6-4.9 0.5-11.5 5.6-13.7 0.3-0.1 0.8 0 0.9 0.1 0.2 0.5 0.5 1.3 0.3 1.5-1.3 1.3-2 2.6-0.5 4.2 1.8 1.8 1.7 4.2 1.7 6.5 0.9 0.7 2.1 0.9 2.9 1.8q1.3 1.9 1.8 4.1 0.1 1.1-0.3 2.1c-0.6 0.6-1.7 1.3 0.1 1.8q0.7 0.9 0.9 2 0.2 2.2-1 4.1c-0.6 1.1 0.1 1.9 0.8 2.6 4.4 1.7 7 6.8 12.4 6.3 3.4-0.5 7.4-2.5 8.5 3.1 0.5 2.8 1.9 3.8 4.8 3 3.7-1 7.1-0.1 6.9 4.1-0.2 3.9 0.4 9.5-6.4 9.1-1.4 0-2.8 0.1-3.9-1h0.1c-1.1-1-2.8-0.7-4-1.6q-0.6-0.6-1.5-0.5c-1.4-0.8-3.2-0.5-4.4-1.8h0.1c-1.1-1.1-2.9-0.7-4-1.7l-0.6-0.4h-0.7c-1.1-0.2-1.8-0.9-2.6-1.6q-0.6-0.5-1.4-0.4c-1-0.2-1.8-0.9-2.6-1.5q-0.5-0.6-1.3-0.4c-1-0.3-1.8-0.9-2.6-1.6q-0.5-0.6-1.3-0.4c-1.1-0.2-1.9-1-2.7-1.6l-0.1-0.1c-0.9-1.3-2.8-0.9-3.8-2.1h0.1c-1.1-1.1-3-0.7-4-2.1h0.2q-1.1-0.7-1.8-1.9c-0.9-1.5-0.7-4.4-3.9-3.1q-1.2 0.3-2.3-0.2-0.5-0.7-1.4-0.7c-1.1-0.3-1.9-1-2.6-1.8q-0.7-0.8-1-1.8c-0.8-1.2-2.1-1.8-3.3-2.4q-0.9-0.5-1.8-1-0.8-0.7-1.5-1.5-0.4-0.4-0.7-0.8zm33.8-2.3q0-0.9 0-1.9c-0.7-1.3-0.4-3.1-2-4q-0.9-0.9-1.9-1.9c1.6-0.9 1.9-2.4 1.9-4 0.7-0.9 1.3-0.9 2 0 1.9 0.4 4.5-0.9 5 2.8 0.4 3.7 3.5 6.9 1.6 11-0.1 0.3 0.6 1.1 1.1 1.4 0.9 0.5 2.2 0.7 2.6-0.2 2.5-5.1 6.4-6.4 11.7-5.4 2.4 0.5 5-1.6 7.5 0.3 2.2 5.3-8.5 4.7-5 10.7q-0.5 1.3-1.8 1.8c-5.3 0.3-10.5-1.3-16 0.2-7.6 2.1-3.8-6.2-6.7-8.8q-1-0.7-0.7-1.3 0.4-0.7 0.7-0.7zm-31.4-39.3q0-1 0-1.9-1 0-2 0c-5.3-2.8-3.2-8.1-3.8-12.3-0.6-3.4 3.2-3.4 5.8-2.8 5.1 1.2 9.3 4.3 13.5 7.3q1 0.1 1.9 0.2 1.1 0.9 2.1 1.8v-0.1c0.8 0.6 1.4 1.3 2.1 2h-0.1q0.7 0.5 0.6 1.1-0.1 0.7-0.2 0.7c-1.6 0.2-3.4 0.4-3.9 2.3-0.5 1.7-1.2 2.8-3.3 2.3-0.5-0.1-1.6 0.4-1.6 0.5 0.3 3.5-3.8 5.3-3.3 8.8-0.7 0.5-1.3 0.6-1.9 0-3.9-3.9-1.6-8.2-0.9-12.9 0.4-0.7-2.3 0.1-1 0.4 0.7 0.1 0.7 0.3 0.7 0.7-0.6 3.1-2.2 3.7-4.7 1.9zm31.4 27.5q-1 0-2 0c0.2-1.7 0.6-3.2 2.5-3.7 1.3-0.4 2-1 2.2-2.7 0.5-5.1 0.6-5 5.3-4.4 2.1 0.2 3.7 1 5.4 2 0.5 0.3 1.2 1.1 1.1 1.4-0.7 1.8-1.4 3.6-2.5 5.1-0.7 0.9-2.3 1.7-3.4 0.9-3.5-2.4-6.1-0.9-8.6 1.4zm-27.5-11.8c0.8-1.5 2.3-1.9 3.9-1.9-0.6 3.1-0.6 3.1-3.9 1.9zm2-5.8q0.9 0 1.9 0 0 0.9 0 1.9-1-1-1.9-1.9zm141.4 80.5q-9.8 0.1-19.6 0.2-3.7-0.2-7.4-0.4c-1.5-0.9-3.4-0.6-4.9-1.5-0.7-1.1-1.6-2.2-1.8-3.5 1.5-3.3 5.8-1 7.7-4.1-7.9 1.4-8.4-5.5-9.4-9.6-2.2-8.7 7.3-5.9 11-9.3-1.2-4.3-6.5-5.5-7.4-9.9 0.1-0.5 0.4-1 0.8-1.3-0.2 0.1-0.5 0.5-0.9 1.1-2.9 7.2-11.4 10.6-12.2 19 0.5 0 0 1.4 0.8 0.6 0.3-0.2 0.2-1.1 0.9-1.5 1.3-0.4 3.2-0.2 3.3 0.8 0.5 5.8 4.2 10.3 5.8 15.6q0.8 1.3-0.1 2.4c-1.4 0.4-2.7 0.5-3.8-0.4q-1.9-0.1-3.8-0.2c-2.4-2-5.6 0-8-1.7l-0.9-0.3h-1c-2.3-2-5.6 0.1-8-1.7l-0.8-0.3h-0.9c-1.7-1.5-4.3-0.2-6.1-1.7l-0.8-0.3h-0.9c-1.2-0.9-2.9-0.7-4.2-1.5q-1.7-0.3-3.3-0.5c-1-0.3-1.6-0.8-1.9-1.7-0.9-2.1 2.1-3.9-0.5-6.6-1.5-1.5 1.8-2.5 3.6-2.8 0.8 0 1.6 0.2 2.3 0.5 1.2 0.5 2.5 1.5 3.2-0.6-0.8-4.1 3.5-6.7 2.6-10.7-0.4-1.5-1.4-2.7-2.6-3.7q-0.8-0.8-1.5-1.7c0.9-2.2 2.6-3.7 4.4-5.1 0.8-0.6 2.1-1.1 2.2-1.8 0.7-6.1 4.9-8.5 10.1-10.1 0.5-0.2 0.7-1.7 1-2.6 5.5-0.5 10.5 2.4 15.5 3.2 11.3 1.9 17.2 9.6 23.8 16.9 2.2 2.5 5.8 1.1 7.9 3.4 2.1 1.3 0.1 2.6-0.1 3.9-1.6 1.3-1.7 2.7 0 3.8 2.4 1.4 3.9 3.2 4 6 2.2 4.2 2 7.2-3.7 6.3-2.9-0.5-5.1-1-6.3 2.2 3 4.9 13.4 1.6 11.9 11.2zm74.2-10l-0.8-0.1-0.7 0.3c-1.7 1.7-4.4 0.3-6.2 1.8h-0.8l-0.9 0.2c-1.5 1.3-3.3 0.8-5 0.9-2.3-0.3-4.3 0.7-6.3 1.5q-1.3 0.6-2.3-0.4c-4.1-1.7-4.1-1.7-2.1-4.9q1-1.5 2-3c0.8-0.7 1.7-1 2.7-0.9q0 0 0.8-0.2-0.9 0.1-0.9 0.1c-1 0-1.9 0.2-2.6 1-0.5-0.4-1.2-0.6-1.6-1-0.8-1-1.8-2.2 0.3-2.8 3-0.8 6.1-1.4 9.2-2.1 2.2-2.1 0.8-4.7 0.9-7 1.3-3.9-2 0.3-2.2-1.1q-1.2-0.1-2.3-0.4c-1.4-0.5-2.8-1.2-4.3-0.7-0.8 0.2-1.4-0.1-1.9-0.7 0.1-3.7 2.4-6.6 3.9-9.8 1-2.2 0.9-3.6-1.8-4.2-0.3-0.1-0.7-1.1-0.6-1.5 0.4-0.9 1.4-1.2 2.4-0.9 0.3 0 0.7 0.1 0.9 0.3 3.3 3.4 7.5 4.7 12.1 5.1 0.9 0 1.8 0.7 2.7 0.9 0.9 0.2 2.2 0.3 2.3-0.8 0.1-0.7-0.7-1.8-1.3-2.3-2.6-2.1-0.7-2.2 1-2.4 0.6-0.1 1.3-0.1 1.9-0.1 2.8-2.5 6.1-2.8 8.9-0.5 3 2.6-0.8 5.3-0.8 8 0 1.7 0.5 3.3 0.6 5q0 1.3-0.8 2.4c-1.1 1.3-2.6 2.1-4.3 2.6-3.1 0.4-4.7 1.6-2.6 4.8 0.1 0.7 0.1 1.8 0.8 1.8 1.3-0.1 0 0.5-0.1-0.9q1.1-0.7 2.4-0.9c3.8 0.2 7.7 1.3 11.5-0.2 4.2-1.7 7.4 0 10.3 3q0.7 1.3-0.5 2.4-0.9 0.2-1.9 0.4c-1.2 0.7-2.8 0.5-3.9 1.6l0.1-0.1c-1.7 1.8-4.4 0.3-6.1 2q-1-0.1-1.9 0.3c-1.2 0.9-2.9 0.7-4.2 1.6h-0.8l-0.8 0.3c-1.3 1-3 0.8-4.4 1.6zm-25-19.5q0.9 0 1.9 0 2-1.6 3.9 0 1 0 2 0c1 1.4 3 0.6 3.9 2 0.2 0.9 0.1 1.9 0.5 2.8 1.3 2.7-0.2 4.1-2.4 5.1-0.3-2.1 0.9-4.6-2.8-5-1.8-0.2-3.4-1.9-5.1-2.5-0.8-0.3-2.1 0.1-2.7 0.6-0.7 0.7-0.4 1.8 0.4 2.5 0.6 0.8 1.3 1.6 0.6 2.5-0.6 0.9-1.6 0.9-2.6 0.6-0.6-0.2-1.3-0.3-1.8-0.6-4.4-3-8.6-4.7-14.3-2.6-2.8 1.1-6.6-2.3-10.2-0.1-0.8 0.4-1.6-0.4-1.7-1.6-0.2-2.3-1.9-3-3.9-3.7-2.1-0.7-4.3-1.5-6-2.9-1.2-1.1-3-2.8-1-4.9 5.3-1.9 8.4-5.8 10-11 0.5-1.8 1.7-2.7 3.6-2.4 2.1 0.4 3.6 2.2 3.4 4.1 0 0.6-0.3 1.2-0.5 1.8-0.8 2.2-1.5 4.7 0.4 6.4 2.2 2 4.2 0.3 6-1.2 1.6-1.2 3.1-0.2 4.6 0.3 0.1 2-1.3 3.4-2.6 5.2 1.2 0.3 2.2 0.8 2.9 0.6 5.4-1.5 9.6 0.6 13.5 4zm-49.2 29.5c-1-1.7-2.2-4.7-3-4.6-3.7 0.3-5.8-4.2-9.7-2.8-2.3 0.8-2.7-0.5-2.1-2.4 0.5-1.5-0.5-3.4 1-4.5 2.1-1.4 4.3-2.8 6.6-3.8 0.8-0.4 1.3 1 1.5 1.9 0.4 1 1 1.7 2.1 1.5 1-0.2 1.4-1.1 1.5-2.1 0.1-0.9 0.1-1.9 0.2-2.9 1.3-0.1 2.9-0.2 3.3-1.5 1.8-5.6 2.3-1.3 3.3 0.3 0.2 0.3 1.1 0.3 1.6 0.4 0.6-2.2 1.7-3 4.1-2.3 2.3 0.7 2.7-2.4 4.6-3.2 2.1 2.8-2.9 6.3 0.8 9 0.7 0.5-0.9 1.2-1.7 1.5-3.4 1.2-6.7 2.6-8.9 5.7-0.6 0.9-0.6 2.6-0.1 2.6 4.6-0.5 5.1 5.3 9 5.7 0.6 0.1 1 0.8 1.5 1.2-3.2 0.7-6.4 0.6-9.7 0.3q-1.9-1.8-3.9 0-1 0-2 0zm-5.8-33.4c-1.7 0.1-3.3 0.4-4.9 0.4-0.9 0.1-2.4 0.1-2.6-0.3-1.9-3.9-7.7-4.2-8.4-9.1-0.2-1.8-1.9-2.5-3.2-3.4-1.3-0.9-2.6-1.5-3.6-3-2.1-2.9-2.7-2.8-4.6 0-0.4 0.5-0.4 1.3-0.7 1.7-1.1 1.3-2.6 1.4-3-0.1-1.7-6.1-5.8-8.1-11.7-8.1-1.5 0.1-3-1-4.5-1.6q-1-0.9-2-1.8 1-0.3 2-0.5 1.8 0.2 3.5 0.4c2.5 1.8 5.7 0 8.2 1.7q1.9 0.2 3.9 0.4c1.5 1.4 3.4 1.4 5.3 1.5q4.3 0.3 8.5 0.6c0.7 1.7 1.3 3.5 2 5.2 0.4 0.9 1.4 1.3 2.3 0.6 1.5-1.1 2.8-2.5 4.4-3.5 1.3-0.7 2.4 0 3.1 1.2-1.4 0.7-2.7 1.7-3.3 3.3-1.4 3.7 0 6.4 3.7 7.4 1.7 0.4 4.2-1.3 5.1 1.3 0.6 1.7 0.3 3.8 0.5 5.7zm5.8-21.4q5.9-0.2 11.8-0.4c-0.4 2.4-4.7 4.4-0.9 7.3 0.2 3.3-0.5 6.2-3 8.6 0-0.9 0-1.9-0.2-2.8-0.4-1.9-1.4-2.9-3.2-1.5-1.3 1-2.2 2.2-4 2.1-2 0-3.4-1.8-2.3-3.6 1-1.5 0.6-3.7 2.5-4.8-1.1-1.5-2.4-3-0.7-4.9zm-6.2 4.2c0.1 2.5-0.8 4.7-3 6.3-0.3 0.2-1.5-0.2-1.6-0.4-0.6-2.1 0.5-4.4-1-6.4 1.2-0.4 2.4-1.1 3.6-1.3 0.9-0.1 1.6 0.7 2 1.8zm0.3 21.1c0.4 1 0.7 1.1 0.8 0.5 0-0.1-0.5-0.3-0.8-0.5zm84.5-7.8c-0.9-0.7-1-1.4-0.4-2.4 0.9-1.5 3.2-2.3 2.7-4.8-2.6-1.3-5.5-0.4-8.2-0.7-0.1-0.6 0-1.6-0.4-1.8-3.8-2.4-4.5-6.8-6.3-10.3-1.1-2.1-0.3-2.9 2.8-3.5 0.7-0.1 1.3 0 2 0 4 13.1 23.8 14 33.9 6.4 2.4-1.8 4.8-3.2 7.6-4 1.9-0.4 3.7-0.3 5.4 0.7 2.4 1.8 4.8 4.1 4.9 6.9 0.1 8.2 5.3 12 11.5 15.3 0.1 1.1-0.2 1.7-1.3 1.9q-0.7-0.2-1.2 0.4-1 0.9-2.1 1.7l0.1-0.1c-0.7 1-1.9 1.1-3 1.3-1.1 0.3-2.1 1-3.1 1.6q-1.2 0.2-2.4 0c-1.5-0.5-2.9-1.4-4.3-2.1-0.9-0.7-1.6-1.4-1.8-2.6q0.3-0.9 0.7-1.8 0 0 0.9 0-0.6-0.7-0.6-0.6-0.2 1-0.9 1.7c-0.3 1.7 0.7 2.6 1.9 3.5 1.1 0.8 1.6 1.8 1.3 3.1q-0.9 0.9-2.2 1.3c-6.5 0.2-8-5.9-11.7-9.2-1.2-1.1 3.6-3.2-1.1-3.5-5.4-0.4 0.9 2.3-1 2.6-0.2 0-0.5 1.1-1 1.5-1.5 1-3.1 0.8-4.7 0.5-5.9-1.2-13.5 7.3-18-3zm33.4-19.6c-1.9 2.4-6 2.3-6.8 6.3-0.2 1.6-2.7 1.8-4.3 1.3-3.3-1.3-5.2 0-7.3 2.7-2.1 2.8-3.7 2.7-6-0.2-2.4-3.1-4.8-3.6-8.3-1.8-3.2 1.5-3.4 1.2-5.3-1.9-1.2-2-2.3-3.9-3.5-5.8-1.2-1.7-0.3-3.1 0.3-4.5q1.9-0.1 3.9-0.1c0.9-1.1 2.1-1.9 3.4-2.5q1.5-0.7 3-1.2 1.8-0.3 3.5-0.6c1.4-0.6 3-0.6 4.5-0.6 3.5-0.5 6.9-1.9 10.5-0.4 1.9 0.8 3.1 2.3 3.8 4.2 1 0.3-2.2 5.9 2.5 1.9 1.1-1 3-0.6 4.6-0.1 1.2 0.8 2.2 1.6 1.5 3.3zm-76.6 9.8c1.5-0.4 2.9-2.1 4.4-1.1 1.2 0.8 2 2.3 2.6 3.7 1.2 2.9-2.4 3.3-3.1 5.2q-1.9 0-3.9 0c-0.1-0.6-0.1-1.3-0.3-1.9-1.8-3.4-1.8-3.4 0.3-5.9zm17.7-13.6q3.7-0.2 7.5-0.5c0.8 0.6 1.5 1.4 0.9 2.3-1.1 1.6-2.3 3.5-4.5 2.7-2.8-1-3.7 2.1-6.3 2.3-0.5-2.7 1.5-4.6 2.4-6.8zm8 14.3c-0.8 0.3-1.5 0.1-1.5-0.7 0-0.5 0.6-1.2 1-1.4 1.1-0.3 1.8 0.5 2.3 1.4q-0.9 0.3-1.8 0.7zm-25.7-0.7c-0.7-0.6-1.6-1-2.2-1.6-0.3-0.3 0-1 0-1.5 0.5 0.1 1.3 0.1 1.5 0.5 0.4 0.8 0.5 1.7 0.7 2.6zm27.5 0q1 0 2 0c-0.1 0.9 0 2.4-1 2.4-1 0-0.9-1.5-1-2.4zm15.7-15.7c-0.8 1.5-2.3 1.9-3.9 1.9q0-0.8 0.1-1.6l-0.2-0.7c1.4-0.7 2.8-0.8 4 0.4zm-39.3 23.5l0.8 0.5-0.3 0.4zm25.5-7.9l0.5-0.8 0.3 0.4zm-137.5 27.5c-1.9 0.3-5.6-1.3-3.2 3.4 0.5 1.1-0.5 3-0.8 4.6q-1.9 1.4-3.8-0.1l-0.8-0.3h-0.7c-1.4-0.8-3.2-0.6-4.4-1.7l-0.8-0.2h-0.7q-1.2-0.2-1.1-0.9 0.1-0.8 0.4-0.8c1.2-0.6 2.3-1.2 3.5-1.8 1.7-1 1-1.9-0.1-2.8-0.8-0.8-1-1.9 0.2-2.3 1.4-0.4 2.6-0.7 1.6-2.4-0.9-1.5-2.3-2.4-4-1.5-0.9 0.4-1.4 1.4-2.2 2-1.9 1.2-3.7 0.5-5.3-0.9-1.4-1.2-3.1-2.4-1.7-4.8 0.5-0.7 0.9-2.1 0.6-2.5-0.9-1.2-2.3-0.6-3.5-0.1-0.9 0.4-1.8 0.8-2.7 1.2-3-9.5 5.3-7.7 9.9-9.8l-0.1 0.1c4.6 0.6 9.5-0.7 13.8 1.9 1.5 2.4 0.1 5.1 0.9 7.5 0.5 1 1.1 1.8 1.9 2.5q0.4 0.3 0.8 0.6 0.3 0.4 0.7 0.7c0 0 0.3 0.9 0.3 0.9 0 0 0 0.9 0 0.9q-0.7 0.8 0 1.6 0.6 0.7 1.2 1.5 0.6 0.7 0.8 1.7 0 1-0.7 1.8zm-74.8-27.5c3 0 5.1 1.2 5.8 4.3l-0.8 0.3-0.8-0.3q-0.6-0.6-1.4-0.6c-1.2-0.3-1.9-1.1-2.6-1.9l0.1 0.1q-0.9-0.5-0.7-1.2 0.2-0.7 0.4-0.7zm226.1 9.8c2.3 1.8 5.7 1.3 7.7 3.8 0.8 0.9 1.7 1 2.4 0.2 0.8-0.8 0.6-1.7 0.1-2.6-0.5-0.8-1.5-1.7-0.7-2.6 0.6-0.5 1.7-0.6 2.6-0.7 2.1-0.1 3.6 1.2 5.2 2.3 1.3 1 2.7 1.9 4.4 0.9-0.3-2.8-4-4.1-3.2-7.5 2.4-0.8 3.2 1.6 4.9 2.2 2.4 0.9 4.6 2.5 7.4 1.5 0.5-0.1 1.5 0.2 1.6 0.5 0.1 1.2-0.8 1.7-1.8 1.8-6.8 0.6-0.4 2.1-0.4 3.3 0 3.4 2.3 4.4 4.7 5.4 1.5 0.6 3.1 1 4.6 1.5q0.6 0.7 0.3 1.2-0.3 0.5-0.6 0.5h0.1c-1.1 1.2-2.9 0.9-4.1 1.9h0.1c-1.2 1.3-3 1.1-4.5 1.9q-0.8-0.2-1.4 0.3c-1.2 1.1-2.9 0.8-4.2 1.7q-0.9-0.1-1.7 0.4c-1.1 0.8-2.2 0.8-3.4 0-1.9-0.2-3.7-0.7-5.2-2-1.1-1-2-0.8-3.3-0.1-5.1 2.6-10.4 1.6-15.5-0.1-1.5-1.8-1.7-3.7-0.5-5.6 0.2-1 1.8 0.5 1.7-1q-0.3-1 0.7-1.2 2-1 4-2c-0.9-1.9-2.1-3.7-2-5.9zm-21.6 31.5q-2-0.1-3.9-0.3c1.6-2.2 3.9-1.7 6.1-1.6 0.6 0.8 0.3 1.4-0.5 1.7h-0.9zm-127.7-465.8q0.3-0.9 0.6-1.7 1.7-0.3 3.3-0.6 2.9 0 5.8-0.1c-0.8 1.6-2.1 2.3-3.9 2.3q-2.9 0.1-5.8 0.1zm37.3 2c-0.3-1-0.6-1.2-0.8-0.5 0 0.1 0.5 0.3 0.8 0.4zm0-5.9c-0.1 0.3-0.3 0.8-0.4 0.8-0.7-0.1-0.5-0.4 0.4-0.8zm5.9-3.8q1-0.1 2-0.2c-0.6 1.4-1.3 1.5-2 0.2zm-51.1 440c-1.3-0.2-3-2-3.8 0.7-0.4 1.3-0.4 1.7-2.4 1.2-2.9-0.8-5-2.6-7.5-3.8 0-2.2-1.5-3.5-2.9-4.9-0.5-0.6-0.8-1.8-0.6-2.6 0.2-1.1 1.3-1.2 2.3-0.9 3.4 1 5.6-0.4 7-3.4 1.2-0.3 3-1.2 3.5-0.8 2.5 1.9 4.4 1.9 6.9 0.1 1-0.8 3.3 1.4 2.9 2.7-1.4 4.1-1.2 8.9-5.4 11.7zm5.9 19.7q0-1 0-2c-0.7-0.6-1.2-1.4-1.9-2q-0.6-0.6-0.4-1.3 0.2-0.6 0.4-0.6c0.9-0.7 1.5-1.3 0-2q-1-1-2 0-1-1-2-1.9c-1.1-5.1 3.2-4.7 5.9-5.9q1-1 2-2 1 0 1.9 0 2.4 1.5 4 3.9c1.3 3.1 3.9 6.4-1.6 8.2-1.3 0.4-0.2 1.4 0.2 2.2 1.5 2.8-0.6 3-2.5 3.3-1.3 0.1-2.7 1.2-4 0.1zm0-15.8c-1.4 2.5-5.1 2.8-5.9 5.9-3.8-3.3-1.4-6.5 0-9.8 3.1-0.3 3.8 2.8 5.9 3.9zm155.2-420.4c1 1.3 2.5 1.6 4 1.9 0.9 1.3 2.2 1.9 3.7 2.1-1.2 2.8-3.7 1.7-5.7 1.8-1.6-1.8-4.2-0.2-5.9-1.8l-0.8-0.2h-0.9c-2.4-2-5.7 0.2-8.1-1.9l-0.7-0.2h-0.7c0.9-1.5 2.3-1.9 3.9-1.9 3.1-0.1 6.2-0.1 9.3-0.1q0.9 0.4 1.9 0.3zm79.9 400.4q-1.3 0.4-2.6 0.7c-5.7 1.9-10.9 1.8-14.9-3.3-1.8-2.3-3.2 0.7-4.8 0.2q-1.4 0-2.6-0.6c-0.5-4.4-5.1-4.9-7.4-7.7-2.4-2.9-5.3-5.4-0.3-8.5 0.9-0.5 0.8-1 0.4-1.1-7.6-2.9-4.3-8.9-4-14.1 1.4-2.5-0.8-6.2 2.5-8.2q0.8 0.2 1-0.5 0.7-0.3 1.4-0.5 1.2 0.6 2 1.8c1.1 2 2.2 3.9 4.6 4.6 3.2 1.1 5 2.6 2.5 6.3-2.8 4.1-0.6 7.3 2.9 9.8 1.1 0.8-0.2-0.1 0.9 0.5 8 4.7 17.5 7.7 19.3 18.7q0.8 1.4-0.8 1.9zm-20-52.4q0.8 0 1.1-0.8 0.7-0.1 1.5-0.2 1.2 0.8 1.7 2.2c0.6 8.2-6.8 10.4-11.5 13.9-2.9 2.2-1.6-3.5-3.3-5l-0.4-0.7c-0.4-0.7-0.3-1.2 0.4-1.6l-0.2 0.1c0.8-1.4 2.8-0.9 3.6-2.3l0.2-0.1q1.1-0.8 2.1-1.7c0.6-0.8 1.3-1.5 2.2-1.9l-0.2 0.1c0.6-1.1 1.5-1.8 2.8-2zm-276.2 7.7c-1.2 0.4-2.6 1.4-3.5 0.1-2.5-3.8-7.6-2.7-10.5-5.8-0.3-0.3-1.2-0.2-1.9-0.2-0.8 0.1-2.3 0.6-1.7 1.3 2.6 2.6 1.5 5.1 0.8 7.9-0.3 1.3 0.8 3 1.3 4.5-1.8 0.8-3.5 1.4-5.5 0.2-3.3-2-6-4.2-7.5-8.1-1.7-4.5-7.1-6.4-11.7-4.4-1.5 0.7-0.7 2.9-0.9 4.4-2.8-1.9-4.6 0.5-6.9 1.2-3.3 1-4 2.4-3.1 5.5 0.4 1.6-0.8 2.5-2.4 1.4-2.6-2-4-1-5.1 1.6q-0.5 0.5-1 1-0.6-0.5-1.1-0.9c-0.7-0.6-1.4-1.3-1.9-2-0.8-0.5-1.5-1.1-2-2l0.1 0.1c-1.3-0.9-0.8-2.9-2.2-3.7l-0.1-0.2q-0.8-1.1-1.8-2c-0.6-0.7-1.4-1.3-1.9-2.1l0.1 0.1c-1.3-0.9-0.9-2.8-2.2-3.8-0.6-0.8-1.3-1.4-1.9-2.1h0.1c-0.7-0.6-1.5-1.2-1.9-2.1l0.1 0.1c-1.4-0.9-1.1-2.8-2.1-3.9-0.9-0.6-1.6-1.4-1.9-2.5q0.1-0.8-0.5-1.4-0.7-1.1-1.6-2l0.1 0.1c-1.3-1-0.8-2.9-2.2-3.8v-0.1c-0.6-0.8-1.2-1.4-1.8-2.2h0.2c-0.2-1.6-0.6-3-2-3.9-0.2-1.6-0.7-2.9-2.2-3.8-1.1-1-0.7-2.9-2-3.8l-0.1-0.1c-0.6-0.8-1.4-1.6-1.7-2.6q0.2-0.8-0.3-1.4c-1-1-0.6-2.8-1.8-3.8h-0.1c-1-1.1-0.6-3-1.9-4 0-1.6-0.4-3-1.9-4-0.1-1.6-0.4-3-1.8-4v0.1c-1.4-1.2-1.2-3-1.9-4.5q0.2-0.7-0.3-1.3c-1-1.1-2.2-2.1-2.8-3.5q-0.5-1-0.7-2.1c-0.3-1-0.5-2.1-0.4-3.3q0.1-0.5 0.1-1.1-0.1-2.8-0.2-5.7c1.8 0.7 3.6 1.5 5.4-0.2 0.6-0.7 2.5-0.6 2 0.4-2.8 5.8 3.1 5.9 5.2 8.7 0.2 0.4-0.8 1.6-1.2 2.5-1.4 3.2-1.4 4.6 1.6 5.1 3.7 0.6 2.2 3.3 3.4 4.9q0.4 0.1 0.8 0.2 0.5-2.8 1-5.7c2-2 4.2 0 6.3 0 1.8-0.1 1.9 1.4 1.8 2.8-0.1 1.5 0.7 2.2 2.2 2.7 3.3 1 6.8-1.8 10.1 0.7 0.7 0.5 1.9-0.7 1.8-1.7-0.1-2.3 1.1-2.8 2.9-2.8 0.1 1.6 0.4 3.1 2 3.9-0.3 1.2-1.5 2.4-0.4 3.6 1.1 1.2 1.1 2.1-0.5 2.7-3 1.3-4.5 3.1-3.2 6.6 0.3 1-0.2 2.4-0.4 3.7 2.9-2.1 6.1-5.5 8.5-10.4 1.3-2.6 3-4.1 5.8-4.2q0.5 0.4 1.1 0.7c1.5 2.6 3.3 4.4 6.5 2.5q1.4-0.2 2.2 0.9l-0.1-0.1c0.9 0.7 1.6 1.5 1.9 2.6q0 0.8 0.5 1.3 0.8 1.1 1.7 2h-0.1c0.7 0.6 1.5 1.2 1.9 2.1l-0.1-0.1c1.4 0.8 0.9 2.8 2.3 3.7v0.1c0.6 0.8 1.3 1.4 1.8 2.1v-0.1c0.7 0.6 1.4 1.3 1.9 2.2l-0.1-0.1c0.9 0.5 1.6 1.2 2.1 2.1l-0.2-0.2c1.5 0.9 1 2.9 2.3 3.8 0.6 0.8 1.3 1.4 1.9 2.1v-0.1c0.7 0.7 1.3 1.4 1.9 2.1q0.9 1 1.9 2 0.9 1.1 1.8 2.1 0.9 1.1 1.9 2.1 1 0.9 2 1.9l0.1-0.2c1.4 0.7 0.9 2.8 2.4 3.4l0.2 0.3q0.5 1.2 1.7 1.7l0.2 0.3q0.6 1.1 1.7 1.6l0.3 0.3q0.5 1.1 1.5 1.6 0.6 0.6 1.4 0.7c1.2 0.3 1.9 1 2.5 1.9q-0.1 0.2-0.1 0.2 0.9 1 1.8 2 1 1 2 1.9 0.2 0.8 0.2 1.7zm-50.9-310.5q2.1-1.4 4.2-2.7 0.6 0.2 1.3 0.5c3.5 1.8 3.5 4.6 1 7-3.7 3.7-7 8.7-13.7 6.6q-0.5-0.5-0.9-1-0.8-1.4 0.3-2.5h-0.1q1-1 2-2 1-1 2-2 1-1 2-1.9h-0.1c0.7-0.7 1.4-1.3 2-2zm-10.5 11.8q0.3-1 0.7-1.9 0.8-0.9 1.7-0.3l0.5 0.6c-0.1 1.4-0.7 2.2-2.2 1.6zm295.4 334q-6.2-0.2-12.5-0.4-0.2-1.1 0.8-1.6 1-0.2 2-0.4c1.2-0.7 2.8-0.3 3.7-1.6h0.1c1.2-1 2.9-0.8 4.1-1.8h-0.1c1.4-1.4 2.9-1 4.5-0.3 1.9 1.5 3.1 3.5 1.6 5.7-1 1.6-2.7 1.5-4.2 0.4zm-84.5-412.7q1 0.1 2 0.1c0.9 1.4 2.4 1.7 4 1.9-3.7 3.2-4.7 2.9-6-2zm-118.1 37.2q-1 0.9-2.1 1.7c-2.4 0.7-4.3 2.1-5.5 4.4q-2.8 0.8-4.1 3.4-0.5 1.2-1.7 0.9c-2.8 0.7-4.5 3.7-7.7 3.7-2.4 1.8-5.8-0.9-8.1 1.7q-1 0.2-1.9 0.5c-2.4-1.3-3-3.9-4.4-5.8-0.6-0.5-1.1-1.1-1.8-1.5-5.4-1.2-6.8-4.1-3.7-8.9q0.2-0.7 0.4-1.5 1.9-0.9 3.8-1.9 0.9 0 1.7-0.4c1-1.4 2.9-0.8 4.1-1.8l0.1 0.1c1.6-0.1 2.9-0.7 3.7-2.2 1-0.2 1.8-0.7 2.1-1.8h-0.1c0.8-1.4 2.8-0.9 3.6-2.3l0.2-0.1q1.1-0.8 2.1-1.7l-0.1 0.1c1.1-1.3 2.9-1 4.1-2l-0.1 0.1c1.1-1.4 2.9-1.1 4.3-2q0.9 0.1 1.6-0.4c0.8-0.7 1.5-1.3 2.5-1.6q0.8 0.2 1.3-0.3c1.6 0.1 3.1-0.3 4.1-1.7 1.7 0.1 3.2-0.3 4.2-1.9q0.9 0.1 1.6-0.4 1.9-1.3 3.8 0.1c-0.6 2.8-3.8 3.4-5.1 5.5-0.6 1.1-1.9 3.5 1.7 2.4 1-0.4 1.6 1.5 0.9 2.5-1.4 1.9-3.4 1.3-5.3 1.5q0-0.4 0-0.7-1.2 0.5 0 0.7 0.1 3 0.1 5.9c-1.2 1.2-1.4 2.4-0.3 3.7l0.5 0.4q-0.3 0.8-0.5 1.6zm188.9-25.4q-1-1-2.1-1.9c0.2-1.2 1-1.9 2.1-2.4q1 0.2 1.9 0.4 0.9 1 1.9 1.7 0.9 1 1.8 1.9-2.8 0.1-5.6 0.3zm-229.9 25.5q0 2 0 3.9c-0.1 1.9 0.1 2.9 2.5 1.6 1.9-0.9 2.6 1.1 3.4 2.4q-0.7 0.7-1.3 1.3l-0.6 0.6 0.6-0.7q0.8-0.4 1.3-1.1c2.6 2 3.6 4.9 4 8.2-4.5 5.3-8.8 10.8-12.5 16.8-1.4 2.4-0.5 4.2 0.4 6.2q-1 0.9-2 1.9c-1.5 0.3-2.8 1-3.7 2.3q-0.9 0.9-1.9 1.9c-1.1 0.2-1.7 0.9-2 1.9q-1.1 0.9-2.2 1.8-1 0.9-2.1 1.8-1 1-2 1.9c-2.4 0.8-4.2 2.2-5.5 4.4q-0.9 1-1.9 2c-1.4 0.7-2.1 2-2.4 3.5q-0.8 0.2-1.7 0.2c0-1.6-0.3-3-1.9-3.8-0.3 0.9-0.6 2.6-0.9 2.6-3.8 0.1-8 3-11.5-1.2-1.3-1.6-3.4-1.7-5.3-0.6 0.4 0.4 0.8 0.9 1.3 1.3 0.8 0.5 1.8 0.9 1.6 2-0.3 1.7-1.8 1.6-3.1 1.6-1.8 0.1-3-1-4.1-2.2-1.5-1.6-3.5-1.4-5.5-1.5-2.5 1.4-4.4 0-6.2-1.5-0.5-0.9-0.4-1.7 0.4-2.4h-0.1q1-0.9 1.7-2l0.2-0.3c1.4-0.7 0.9-2.7 2.3-3.5v0.1q0.9-1 1.9-2.1 0.9-1 1.8-2 1-1 1.9-2 1-1 2-2 1-1 2-1.9 1.1-0.8 2.2-1.6c1.2 0.2 2.8 0.8 3.6 0.3 4.1-2.4 8.1-4.8 10.9-8.9-1-1.3-2-2.4-2.9-3.6q0.9-1 1.9-2 1-1 2-1.9 1-1 2-1.9 1.1-0.9 2.1-1.8 1-1 2-1.9l-0.1-0.1c0.8-1.4 2.8-0.9 3.6-2.3l0.2-0.1q1.1-0.8 2-1.7c0.6-0.7 1.3-1.4 2.1-1.9h-0.1c0.6-0.9 1.4-1.6 2.6-1.9q0.8 0 1.4-0.6 1-0.6 1.8-1.6c0.7-0.6 1.4-1.3 2.2-1.8v0.1c1.5-0.2 2.9-0.8 3.7-2.2q1.1-0.9 2.2-1.7c1.5-0.2 2.8-0.9 3.7-2.2q1 0 2-0.1zm48.9-23.6q0.2-0.9 0.5-1.7 0.9 0.1 1.7-0.5 0.9 0.2 1.9 0.3c-0.9 1.7-2.4 2-4.1 1.9zm194.7 399c4-1.4 4-1.4 1.8-6.1v0.1c0.9-0.7 1.7-1.5 2.6-2.3q0.8-0.8 1.6-1.5v0.1c0.7-1 1.5-1.7 2.7-1.9q0.8 0.1 1.2-0.5 1.1-0.8 2.1-1.6l-0.1 0.1q1-1.5 2.7-1.9 0.9-0.1 1.4-0.8 0.9 1 1.2 2.3c-0.7 7 1.6 13.9 1 20.9q-0.3 0.5-0.6 1-2.9 0-5.8 0-1-1-2-2c-0.7-0.7-1.7-1.2-2.3-2q0 0-0.5-0.8-0.8 0.5-0.8 0.5c-1.4 0.5-2.7 1.4-4.2 0.3q-1-1.9-2-3.9zm-98.2 64.8c1.3-2 2.6-2 3.9 0q-2 0-3.9 0zm-194.4-90.5c3.7 0.3 3.9 3 3.9 5.7q-1.3 1.4-1.9-0.3 0-0.8-0.5-1.4-0.7-1.1-1.7-1.8v-0.1q-0.5-0.6-0.4-1.2 0.1-0.6 0.3-0.6zm-19.8-164.9q-2 0-4 0c0.9-1.5 2.3-1.9 3.9-1.9q0 1 0.1 1.9zm430 104.8q-0.4 0.8 0.3 1.3 0 6.9 0 13.8-0.6 0.7-0.2 1.6c-1.9 2.4-1.9 5.2-2 8.1-1.3 1-1.8 2.4-1.8 4-1.4 0.9-2 2.3-1.9 4q-1.1 0.9-2.2 1.9c-3.2 0.9-6.1 4.9-9.8 2-3.9-3.2-1.9-7-0.4-10.7 1-2.2-0.1-4.5 0-6.7 0.2-1 0.7-1.9 0.5-2.9-2.6-13.3-2.6-13.3 11.7-10.3 0.8-5-5.5-10-0.2-14.9q1.4-0.6 2.2 0.7l-0.3-0.2c1.6 0.7 1.1 2.8 2.4 3.6l0.1 0.1c1 1.4 1 3.1 1.6 4.6zm-5.7-8.1c-2.3 4.4 1.7 7.7 2.3 11.6 0.1 0.9 1.2 1.6 1.4 2.4 0.4 1.6 0.4 3.5-1.1 4.4-2 1.2-3.7 0.5-4.4-2l-7.7-2.7c-2.4 0.5-3.6 4.1-1.4 5.7 2.7 2 2.1 4.4 1.7 6.8-0.1 0.4-1.6 0.6-2.5 0.9q-0.8-0.3-1.7-0.4c-0.7 0.2-1.2 0.5-1.7 1-1.9 1.9-2.7 6.1-6.1 4.9-2.8-0.9-1.7-4.3-1.3-6.8 0.2-1.5 0.1-3.1-0.5-4.6-0.4-0.7-0.7-1.4-1.1-2.1-3.4-3.2-4.5-7-3.3-11.5l0.1-0.1c0.8-1.3 3.1-0.6 3.5-2.5l-0.2 0.1c0.9-0.5 1.7-0.4 2.3 0.3 1.3 1.4 1.6 3.4 3.4 4.6-0.4-1.7-2.1-2.3-2.7-3.7q-0.8-1-1.4-2.3-0.1-1.4 0.9-2.4c0.7-0.8 1.6-1.6 2.8-1.7q0.8 0.3 1.1-0.5c1.6 0.1 2.9-0.4 4-1.7q5.8 0 11.7-0.1l0.1 0.1c0.6 0.7 2 0.9 1.8 2.3zm-423.9-220q0.9-1.1 1.7-2.2 0.9-0.1 1.7-0.3c2.3 0 4.1 1.2 6 2.1 0.1 2.6-0.3 5-2.2 7.1-1.3 1.5-4.5 2.9-2.3 5.3 1.6 1.9 3.3-0.8 4.8-1.6 1.7-1.1 3.7-1 5.6-1 1.3 1.8 3 2.3 5 1 0.9-0.6 1.9-2.4 2.6-0.1 0.5 1.5 0.1 4.3-1.4 4-5.1-1.1-8.9 2.8-13.6 3.1-1.7 0.1-3 1.2-3.6 2.8-0.2 0.3-0.2 0.7-0.1 0.9 0.2 0.3 0.7 0.7 0.7 0.7 3.6-3.8 7.9-1.3 11.9-1.4 3.9-0.2 3.9-0.1 3.7 5.1-0.8-0.5-1.5-1.2-2.3-1.5-2-0.9-3.9-1.5-3.5 2 0.2 1.1-0.3 1.9-1.6 1.7-1.9-0.2-3.5 0.1-3 2.4 0.6 3-0.5 5-2.6 6.8-1.9-3.2-7.3-0.6-8.3-4.2-0.8-2.9 0.2-6.4 0.3-9.6 0.1-0.6 0.1-1.3 0.1-1.9 1.4-1.1 2.5-2.8 1.4-4-2.5-2.5-2.8-5.1-2.1-8.4 0.3-1-0.8-2.2-1.3-3.4q0-1 0-1.9c1.5-0.7 2-2.1 2.4-3.5zm-4.4 123.3c-1.2 1.9-3 1.8-5 1.6-4.8-0.6-9.1 0.6-13.3 3.4-3.4 2.3-3.3 6-5.2 8.8-0.6 0.6-1.4 0.7-1.7 0-0.7-2.1-0.6-4.4 0.1-6.5 0.6-1.7 0.5-3.1-0.5-4.5-0.9-1.4-0.3-1.9 1-2.8 4.9-3.4 4.8-3.6 1.1-9.8q0.1-0.7 0.1-0.7 0.4-0.7 1.1-1.1 0 0 0.7-0.1c2.2 0 4.3 0 6.5 0.1 1.3 0 2.5 0.7 2.3 2.1-0.2 1.4-1.7 1.5-2.9 1.7-0.5 1.2-1.2 2.3-1.5 3.5-0.6 2.6 0.6 4.2 2.8 3.5 2.5-0.9 5-1.3 7.6-1.1 2.2 0.1 1.3-4.3 3.9-2.8 1.5 0.9 0.9 3.8 2.9 4.7zm-23.5-9.8c-1-1.1-2-2.3-2.9-3.5-2.9-4.4-2.8-4.5 2.8-6.3-2.6 3.4 1 5.3 2 7.9-0.7 0.6-1.4 1.1-1.9 1.9zm2.3-11.1c0.3 0.3 1 0.8 1 1.3-0.1 0.8-0.7 1-1.5 0.7-0.6-0.3-1.2-0.5-1.8-0.7 0.5-0.9 1.1-1.7 2.3-1.3zm-0.4-4.6l0.8 0.4-0.3 0.4zm25.5-76.6c-0.3-0.2-0.8-0.4-0.8-0.5 0.2-0.7 0.5-0.5 0.8 0.5zm15.7-11.8c0.4-0.5 0.8-1.1 1.2-1.4 0.7-0.4 1.3-0.2 1.4 0.6 0 0.2-0.5 0.5-0.7 0.5-0.6 0.2-1.3 0.2-1.9 0.3zm10.1 15.7q-0.1 2-0.2 3.9-0.9 0.3-1.8 0.3c-0.2-1.8 0.1-3.4 2-4.2zm98.4-92.2q-0.3 0.9-0.4 1.7l-1 0.1-1-0.1q1.2-0.9 2.4-1.7zm-43.6 21.3c1.1-2.3 2.6-3.5 5.3-2.2 0.8 0.4 1.9 0.3 2.8 0.5-2.3 2.4-5.3 1.6-8.1 1.7zm-1.9 11.9q-0.1 1-0.1 2c-1.6-0.7-1.4-1.4 0.1-2zm31.1-29.7c-2-1.4-1.6-2.6 0.3-3.7q-0.2 1.9-0.3 3.7zm-103.5 274.6c-2.8 0.8-5.5 1.7-8.4 2.3-2.4 0.6-3.5-1.2-4.3-3-0.6-1.4-0.2-2.7 1-3.4 1.1-0.7 2.4-0.8 3.6-1.4 6.8-2.9 6.8-2.9 8.3 4.5 0 0.2-0.2 0.6-0.2 1zm-17-14.5c-0.3-0.5-0.8-1-0.9-1.5-0.1-0.9-0.1-2 0.2-2.9 0.9-2.5 2.4-4.5 5.2-5.3 0.2 0 0.8 0.3 0.8 0.5 0.2 2.7-0.5 4.9-2.4 6.9-0.9 0.9-1.2 2.4-2.9 2.3zm38.3 19.1q0.8 1.2 1.5 2.3c0.3 1.5 0.8 2.9 2.3 3.7q0.3 1.8 0.7 3.6c-2.9 2.2-4.6-0.2-6.5-1.7-1.9-1.8-3.5-3.5-0.5-5.7 0.6-0.5 0.5-1.8 0.7-2.7q0.9 0.2 1.8 0.5zm-10.4-0.4c-0.1 1-0.6 1.7-1.6 2.1-0.6 0.2-1.2 0.2-1.8 0.3 0.3-2.7-0.7-5.5 0.8-8.1 0.1-0.2 0.5-0.2 0.8-0.2 0.3 0.1 0.7 0.2 0.8 0.4 0.4 1.8 0.7 3.7 1 5.5zm-30.9-11.2c-1.2-0.7-2.3-1.3-3.4-2-0.4-0.3-0.9-1.2-0.8-1.3 0.8-0.9 1.8-0.7 2.7-0.1 1.2 0.7 1.3 2 1.5 3.4zm6.8-1.1c-0.2 1-0.8 1.8-2 1.6-0.3 0-0.7-1-0.7-1.6 0-0.6 0.3-1.5 0.7-1.6 1.1-0.3 1.8 0.5 2 1.6zm-9.4-6.1c-0.5 0.2-1.1 0.7-1.5 0.6-0.7-0.1-0.9-0.8-0.4-1.4 0.4-0.4 1-0.5 1.5-0.8q0.2 0.8 0.4 1.6zm34.1 23.3q0.3 0.3 0.5 0.7c-0.6 0.2-1.1 0.5-1.6 0.7-1.1 0.3-1.3 0-0.5-0.7 0.4-0.4 1.1-0.5 1.6-0.7zm-31-32.7q-0.5 0.1-0.9 0.3c0-0.3-0.2-0.7-0.2-0.8 0.8-0.5 1.2-0.3 1.1 0.5zm-0.5 16.5l0.8 0.4-0.4 0.4zm7.9-11.8l0.8 0.5-0.4 0.3zm-9.8-47.1c2 0.1 3.8 0.5 4.8 2.5 0.3 0.5 0.4 1.3 0.2 1.7-0.2 0.5-1 1-1.4 0.9-1.9-0.3-3.7-0.8-5.6-1.2q1-2 2-3.9zm0 0c-1.1-0.7-1.8-1.6-1.7-3 0-0.4 0.6-0.9 0.9-1.3 0.2 0.2 0.5 0.4 0.5 0.7 0.1 1.2 0.2 2.4 0.3 3.6zm53.1 133.6c0.9-0.2 1.9-0.2 2.8-0.5 1.8-0.7 3.3-0.4 4.2 1.2 1.1 1.9 1.1 4.7-0.8 5.2-4.9 1.4-4.6 4.1-3.4 8 0.9 2.8-0.9 4.2-3.7 3.2-2.2-0.8-3.7-1.9-4.5-4.5-0.6-1.7-1.3-2.6 0.8-3.4 2.2-1 3.9-1.7 1.6-4.8-1.3-1.8 2.3-2.6 2.9-4.4zm27.6 9.8q4.8-3.9 5.2-4.2c1.9 4.7-1.5 9.6 0.6 14q-0.9 0-1.9 0-2-4.9-3.9-9.8zm0 13.8c-0.3-0.2-0.9-0.4-0.8-0.5 0.1-0.6 0.4-0.5 0.8 0.5zm3.9-4c-0.9 0.4-1.1 0.7-0.5 0.8 0.1 0 0.3-0.5 0.5-0.8zm51.1 39.3c-1.6 2.7-4.9 3.2-7.2 4.5-2.9 1.5-2.4 3.2-2.6 5.3-1.8 0.8-3.5 1.6-5.3-0.3-2.1-2-2.9-5.8-7.4-5.1-1.4 0.3-1-3.5-3.1-4.4 1.4-2.4 2.3-5 2-7.8 0.7 0.6 1.3 1.4 1.9 2 1.7 1.5 0 4.8 2.7 5.6 2.1 0.5 3.5-2 5.1-2.1 4.7-0.2 9.5 0 13.9 2.3zm-41.2 4.1q-1-0.2-2-0.2-0.1-0.8-0.3-1.6 0.2-0.9 0.5-1.9c0.5-1.4 1.6-2 3-1.9 1.4 0.1 2.3 1.1 2.5 2.6 0.1 1.6 0.1 3.2 0.1 4.8q-1-0.3-2-0.7-1.2-0.2-1.8-1.1zm17.6-13.9q0 1 0 1.9-0.4 0.2-0.9 0.4c-0.7 0.2-1.7 0.9-2.2-0.2-0.5-0.9 0.4-1.5 1.3-1.8 0.6-0.2 1.2-0.2 1.8-0.3zm-2-5.9c3.2 0.6 3.2 0.6 2 3.9-1.6-0.8-1.9-2.3-2-3.9zm0 15.7l-0.4 0.8-0.4-0.3zm-29.5-5.8q-1 0-2-0.1-0.2-0.9-0.3-1.8c1.2 0.2 1.9 0.8 2.3 1.9zm0-45.3c0.1-0.6 0.1-1.2 0.3-1.8 0-0.3 0.3-0.7 0.5-0.7 0.7 0.1 1 0.6 0.6 1.3-0.3 0.5-0.9 0.8-1.4 1.2zm104.2 74.6c-2.8-0.2-4.2-1.6-3.5-4.4 0.2-1 0.7-1.9 1.3-2.6 4.4-5.1 8-11 14-14.6 3.1 4.5 8.8 6.5 11.4 11.4-1.4 2.1-3.9 1-5.1 2.9-2 3.5-4.8 1.9-7.7 0.7-0.4 1.3-0.7 2.5-1 3.8-0.3 0.9-0.7 2.2 0.5 2.5 3.7 0.7 3.5 3 2.6 5.8-0.1 0.4 0.4 1.3 0.9 1.4 1.1 0.5 1.7-0.4 2.1-1.4 0.4-1 0.8-2.8 2.2-0.9 1.4 1.7 2.6 3.7 2.6 6.3-2.3 1.2-4.5 2.3-7.2 1.6-1.5-0.4-2.6 0-3.3 1.3-0.8-0.3-2.4-0.8-2.4-1 0.4-4.3-1.4-4.8-5.1-3.6-1.4 0.4-2.7-2-1.8-3.5 0.9-1.3 2.1-2.3 2.9-3.7 0.6-1.1 0.4-2.6-1.1-3.1-1-0.3-1.8 0.3-2.3 1.2zm-29.5-2c1.3-0.2 2.6-2.2 4-0.1 0 1.2 1.6 2.4 0 3.3-0.5 0.3-1.6-0.5-2.4-0.9-0.3-0.1-0.5-0.4-0.7-0.7-0.3-0.5-0.6-1.1-0.9-1.6zm41.3-19.7c0.6-1.1 1.1-2.2 1.8-3.3 0.3-0.4 0.9-0.6 1.4-0.8 0.1 0.6 0.5 1.2 0.4 1.8-0.4 1.9-2 2.2-3.6 2.3zm-33.5 5.9q-2.8-1.1-3.9-3.9 3.9 0.1 3.9 3.9zm43.8 30.7q-0.4 0.1-0.9 0.3c0-0.3-0.2-0.7-0.2-0.7 0.8-0.6 1.2-0.4 1.1 0.4zm-22.1-15c0.3 1 0.6 1.1 0.7 0.5 0.1-0.1-0.5-0.3-0.7-0.4zm11.7 15.6l-1 0.1-0.9-0.2q0-0.9 0-1.8 0.9 0.9 1.9 1.9zm108.1-25.5c-2.3 1.4-1.9 3.8-2 5.9-0.6 0.5-1.3 0.6-1.9 0-0.7-2.2-3-3-4.3-4.9 2.1-2.7 5.1-3 8.2-2.9q0 1 0 1.9zm-4.2-7.2c0.8 0 1.1 0.4 0.9 1.1-0.1 0.3-0.4 0.6-0.6 0.8-0.8 0.5-1.4 0.3-1.4-0.6 0-0.4 0.7-0.9 1.1-1.3zm-11.5 7.2c-1.6 0-3.1-0.3-3.9-1.9 1.1 0 2.3-0.1 3.5 0.1 1.1 0.2 1.2 1 0.4 1.8zm-9.8 13.8c2.1-0.1 4.4 0.3 5.9-2-2.2 0.1-4.5-0.3-5.9 2zm3.9-15.7q-2 0-3.9 0 1.9-3 3.9 0zm17.7 7.8q1 0 1.9 0-0.9 2.1-1.9 0zm-15.7 5.9c0.9-0.3 1.1-0.6 0.4-0.8-0.1 0-0.3 0.6-0.4 0.8zm-12.3-9.4c-0.3 0-0.7 0.2-0.7 0.1-0.2-0.2-0.2-0.5-0.3-0.8 0.2-0.1 0.6-0.3 0.7-0.2 0.2 0.2 0.2 0.6 0.3 0.9zm96.8-14.1q-1.2 0.7-2.3 1.5c-1.5 0.3-2.9 0.8-3.7 2.3q-1.1 0-2.1 0c-5.7 0.5-9.1-2.7-11.8-7.2-0.5-0.8-1.4-2-1.1-2.5 2.7-4.8-2.6-7.7-2.7-11.8h0.1c7.8-6.9 10.9 2.6 13 5.5 2.8 3.8 6.4 5.6 9.6 8.3q0.9 1 1.1 2.4 0 0.7-0.1 1.5zm-19.7 11.7q-1.9 0.1-3.7 0.2-1.1-2-2.2-4.1c2.3 0.1 4.7-0.3 6.1 2.3q-0.1 0.8-0.2 1.6zm-5.9-7.8q-3 2 0 3.9 0-1.9 0-3.9zm10.3 4.1q-0.3 0.8-0.5 1.7-1 0-1.9-0.2 1.2-0.8 2.4-1.5zm-8.3-4.1l0.8 0.4-0.4 0.4zm-1.9 0q0.9 0 1.9 0-1-2-1.9 0zm-7.9-27.5q1 1.9 1.9 3.9c-1.8 0.1-3.8-0.2-5.3 1.4-0.8 0.8-1.5 2.6-2.8 1.2-0.6-0.6 0.1-2.4 0.3-3.6q0-0.4 0-0.9c1.9-0.9 3.7-2.1 5.9-2zm-182.7 35.4q0.4-0.2 0.8-0.3c0.8-0.3 1.8-1 2.3 0.1 0.4 0.9-0.4 1.6-1.3 1.9-0.6 0.1-1.2 0.2-1.8 0.3q0-1 0-2zm-2 0q1-2 2 0-1 0-2 0zm2 2q0 0.9 0 1.9-2.1-1 0-1.9zm0 1.9q1 1 1.9 2-0.9-1-1.9-2zm-58.9-13.6q0.9 0.5 1.8 1.1-0.7 0.3-1.5 0.3-0.1-0.7-0.3-1.4zm211.7 11.7q-0.4 0.3-0.8 0.5c-0.2-0.5-0.5-1.1-0.7-1.6-0.3-1.1 0-1.3 0.7-0.4 0.4 0.4 0.5 1 0.8 1.5zm2.4-6c0.6 0.1 1.2 0.1 1.8 0.3 0.3 0 0.7 0.3 0.7 0.5-0.1 0.8-0.6 1-1.3 0.6-0.5-0.3-0.8-0.9-1.2-1.4zm58.9-27.4q1.6-1 3.2-2.1c0.8-0.5 2.1-0.8 2.3 0.1 0.9 3.7 3.8 3.8 6.6 4.3 2.7 0.5 5.5 1.2 8.2 1.9q-1.3 1.8-2.5 3.6c-1.1 0.2-1.9 0.7-2.2 1.8-1.1 0.1-1.8 0.6-2.2 1.6-2.4 0.7-4.3 2.1-5.6 4.3q-1 0.1-2 0.2-0.6 1-1.7 1.3-1 0.6-1.9 1.1l-0.2-0.8c-1.6-3-2.8-6.3-5-9.1-3.2-4-2-6.9 3-8.2zm4.1 17q0.8-0.7 1.7-1.3-0.1 0.7-0.3 1.5-0.7 0-1.4-0.2zm40.6-35.3q-0.8 0.1-1.6 0.2c-10.6-1-20-3.7-21.7-14.8-3.3 1.7-0.7 10.6-7.5 7.3-5.5-2.7-6.2-8.3-2.5-13.4 1.5-2.1 2.3-4 1.4-6.2-0.1-0.5 5.8-7.4-1.5-1.9-1.7 1.3-3.6-0.6-5.1-2q-0.4-0.3-0.8-0.5 0.2-0.8 0.5-1.6 1-1 2-1.9 1.6-0.3 2-2 1.6-0.3 1.9-1.9c1.1-0.3 1.7-1 2-2q2.6-2.2 5.2-4.3c2-1.4 5.8-1.4 4.6-5.5h0.1c3.6-4.3 7-1 10.4 0.3 3 8.5 1.1 12-9.5 18.1-0.5 0.8-1.7 1.3-1.2 2.5 0.2-0.4 0-0.8 0.1-1.1 0.5-0.7 1-1.2 1.6-1.7 1.7-1.6 4.5-0.8 6.1-2.6 2.9-3.2 6-2.8 8.3 0.2 2.4 3.1 2.6 6.6-1.7 8.8-0.2 0.2-1.6-0.7-0.7 0.8 13-4 16.8 0.3 14 15.9q0 1-0.1 1.9c-2.7 1.9-4.7 4.5-6.3 7.4zm-9.3-27c2.1-0.2 3.7-1 3.8-3.5 0.1-1.7-0.4-3.2-1.9-4.1-1.1-0.7-2.6-1.5-3.4-0.2-2.5 3.9-6.7 3-10.3 3.9-0.9-1.9-1.4-4.1 1.4-4.4 3.2-0.3 4.8-2.3 6.7-4.5 2.7-3.3 3.1-6.8 1.8-10.7q0.4-0.6 0.9-1.1c2.8-1.4 5.1-3.3 6.9-6.1 2.1-3.3 4.8-6.8 9.8-4.6q0 1 0.1 1.9c1.1 1.1 0.7 3 1.9 4-0.7 2-2.5 3.7-1.3 6.5 3.3-2.4 3.2-7.2 7.2-8.5q0.9 1 2 2 0 1 0 1.9c3.8 4.3 3.8 4.3 1.8 8.1-0.6 1.1-1.4 2.2-2.2 3.2-1 1.7-0.3 3.2 0.6 4.5 1.2 1.8 2.8 1.6 4.1 0.3 1.7-1.6 3.4-1.4 5.3-0.4q0.1 1 0.1 2c-1.4 0.8-2 2.1-2.1 3.7-2.2 1.5-3.4 3.5-3.9 6-1.5 0.8-2 2.2-2.1 3.8-1 0.4-1.6 1.1-1.7 2.2-1.5 0.7-2.1 2-2.4 3.6-1 0.4-1.5 1.2-1.6 2.2-2.1 1.3-3.4 3.3-4.2 5.7q-0.8 0.1-1.6 0.3c-0.6-1.8-2.2-3.5-1.1-5.5 2.3-4.2-0.2-6.8-2.9-9.3-2.3-2.2-3.1-2.5-5.4 0.5-1.9 2.6-3.6 2-5.7 0.8-2.2-1.2-1-2.7-0.6-4.2zm-29.2-3.8c5.3 2.8 6.3-2.5 8.6-4.9 2.4 0.8 3.7 2.4 4.4 4.2 0.6 1.6 0.6 3.3-1.9 3.2-1 0-2.2-0.2-2.5 0.9-0.4 1.7 1 2.1 2.3 2.5 0.9 0.4 1.7 0.9 1.6 2.1-0.2 1.1-1.1 1.6-2.1 1.6-4.2-0.2-4.8 2.9-5.4 5.8-0.4 2 2 6 4.2 7 0.4 0.2 1.4-0.3 1.6-0.7 0.4-0.9 0.5-1.9 0.6-2.8 0.3-1.6-1.5-3.6 0.2-4.5 2.2-1.3 4.6-2.7 7.3-2.4 1.1 0.2 1.4 1.5 0.7 2.2-2.7 2.8-0.9 5.4-0.2 8.2 0.7 2.4 2.3 3.3 4.5 2.5 3-1.1 4.7-0.9 5.7 2.7 1 3.3 2.7 3.3 4-0.2 0.2-0.6 1-0.5 1.4 0.2 0.7 1.1 1.3 2.3 2 3.4q-0.3 0.9-0.4 1.9c-1.1 0.3-1.6 1-1.8 2.1-1.1 0.3-1.6 1-1.8 2-1.1 0.3-1.8 0.9-2 2-1.1 0.2-1.8 0.8-2 1.9q-1.6 0.4-2 2-1.6 0.3-1.9 2c-1.1 0.1-1.8 0.7-2.1 1.8q-1.6 0.3-2 2-1.6 0.3-2 1.9-1 0.1-2 0.3c-6.7-0.3-7.1-0.7-5-6.1 0.4-1.1 2-1.6 1.3-3.6-4.2 0.5-8-0.8-11.1-4.2-1.2-1.3-3.2-2.5-5-2.8-4.2-0.9-5.5-3.9-6.5-7.4-1.2-4.1-1.1-4.5 3.1-8.6-7.4-1.4-7.4-1.4-7.5-8 0.6 0.8 1.2 1.5 1.6 2.2 0.5 0.7 1.3 2.1 1.6 1.1 0.9-3.3 3.5-4.5 6.1-5.6 3.6-1.6 4.2-4.6 4.4-7.9zm-6.2 49.1c-3 3.4-2.9 3.4-1.1 6.4 0.7 1.4 0.9 3.3 2 4.1 2.9 2.1 1.1 4.5 1.2 6.8-3.3 0.2-6-4.1-9.8-1.1-0.8 0.6-1.9-0.5-1.7-1.6 0.1-1.5 0.8-3 1-4.6 0.2-1.4-0.9-3.2-1.9-2.9-3.9 0.9-3.5-1.4-4.5-4-1-2.6-4.1-2.6-6.7-1.2-0.3-1.2-1.5-2.3-0.5-3.6 1.1-1.3 1-1.8-0.8-2.3-3.6-1.1-3.7-1.3-2.5-4 1.1-2.7 2.1-5.2 0.9-8.2-0.4-1.3 0.5-3.1 0.8-4.7q1-1.3 2.1-2.7 1.6-0.3 2-1.9 1-0.1 1.9-0.1c6.5 3.1 4 8.5 3.2 13.4-0.4 2.8-1 4.9 3.3 5.6 3.6 0.6 6.8 3.4 9.2 6.5q1 0 1.9 0.1zm-1.9-0.1c-5-2-9.3-5.8-15-6-0.8 0-1.3-0.8-0.8-1.2 2.6-2.2-0.4-5.6 0.8-7 3.6-4.3 1-7.7-0.7-11.3q0.9-1.1 2-1.9 0.2-0.9 0.3-1.7c1.1-0.3 1.6-1 1.8-2.1q0.9-0.1 1.7-0.3c0 2.5 0 5.1 0.1 7.7 0 1.6-0.4 3.4 0.9 4.6 1.7 1.7 2.7-0.9 4.1-0.9 1.6-0.1 2.3 1.1 2.5 2.4 0.3 1.3 0.3 2.5-1.6 2.9-1.5 0.3-3 0.9-4.4 1.6-0.9 0.4-1.2 2.1-0.2 2.2 3.1 0.2 3.1 3 4.4 4.6 1.6 1.9 1.8 0.2 2.3-0.8 0.5-1.1 1.1-1.2 1.9-0.2 2 2.5-0.2 4.9-0.1 7.4zm-6.7-25c-0.2 0-0.6-0.1-0.6-0.2 0-0.3 0.1-0.6 0.2-0.9 0.3 0.1 0.7 0.2 0.7 0.3 0 0.3-0.2 0.6-0.3 0.8zm32.2-43.7c0.7 0.7 1.3 1.3 1.9 2 0.6 0.8 0.7 1.5-0.4 2.1-1.9 1-3.8 1.9-6.1 1.4q0.6-1.6 1.2-3.1c1.1-0.4 1.6-1.2 1.7-2.2q0.9-0.2 1.7-0.2zm-39.2 41.3q-1 0.9-2 1.9 0-0.9 0.2-1.8 0.9-0.1 1.8-0.1zm-306.6-51.2c0.4-1.4 1.7-3.1-0.8-3.8-1.2-0.4-2.5-0.6-3.7-1.1-0.3-0.1-0.3-1.1-0.3-1.7 0-0.2 0.4-0.6 0.7-0.7 3-0.6 6.3 1.1 9.8-2.1-0.2 5.8 0.8 10 4.7 13.2 0.9 0.7 1.4 2.1 1.9 3.3 1.2 2.6 0.2 4.6-3.2 5.3-2 0.3-2.9 1.1-3 2.9-0.2 1.7-0.1 3.3 2.4 3 1.6-0.2 2.9 1 1.2 2-3.6 2.2-4 5.5-3.8 9.7-3.9-3.2-2.9-8.1-6.2-10.9-1-0.9 2.7-2 1.3-4-5.4 0.3-3.4-5.4-6.4-7.6 2.9-2.4 7.3-1.1 9.7-4.2-0.5-2.1-2.7-2.3-4.3-3.3zm-3.9-17.6q3.3 0.8 6.6 1.7 0.7 0 1.3 0.2 0.1 0.9 0.1 1.8c-1 1.1-1.8 2.5-3 3.4-1.9 1.3-3.4 0.6-3.9-1.7-0.4-1.8-0.7-3.6-1.1-5.4zm-5.7 13.3c0.8-0.3 1.3-0.1 1.5 0.7 0.3 1.6 0.5 3.3-0.8 4.5-0.5 0.5-1.7 0.9-2.5 0.7-1.1-0.2-1.1-1.3-0.8-2.2 0.5-1.5 1-3 2.6-3.7zm9.6 4.3c-0.7 0.6-1.4 1.4-2.2 1.7-0.8 0.4-2.1 0.3-2.3-0.9-0.2-1 0.7-1.8 1.8-1.7 0.9 0.1 1.8 0.6 2.7 0.9zm285.1 65.1q1.8-0.3 3.6-0.6c-0.6 2-2.1 2.3-3.9 2.2q0.1-0.8 0.3-1.6zm-204.5-379.4c-1.1-0.7-2.3-1.2-3.4-1.9-0.4-0.3-0.5-0.9-0.8-1.4 0.6-0.1 1.2-0.5 1.8-0.4 1.9 0.4 2.2 2 2.4 3.7zm-37.4 22.6c-0.2 0.9-0.4 2.1-1.8 1.5-0.4-0.2-0.9-1.2-0.8-1.6 0.3-0.4 1.1-0.6 1.7-0.8q1.5-0.6 0.9 0.9zm0-1q1-1 2-2-1 1-2 2zm-35.3 49.1l-0.9-0.4 0.4-0.4zm283 318.3c0.9-0.3 1.1-0.6 0.4-0.8-0.1 0-0.3 0.5-0.4 0.8zm55.1-66.7c1-0.3 1.6-1.1 1.8-2.1 1.4-0.7 2.2-1.9 2.5-3.4 1.1-0.3 1.7-1.1 1.8-2.1 1-0.4 1.6-1.2 1.8-2.2q1.6-0.4 1.8-2.1 1-0.9 1.9-2l0.1-0.1q1.2-0.9 2.5-0.1c2.1 3 4.7 6.1-0.2 9-0.9 0-1.7-0.5-2.4-1 0.2 0.5 0.9 0.4 1.1 0.9 4.5 3.1 4.5 3.4-3 7.1-0.9 0.2-2.4 1-2.7 0.7-2.2-2.4-4.7-0.8-7.1-0.7q0.1-1 0.1-1.9zm25.1-24.2c-0.3 2-1.7 2.4-3.4 2.5q0.1-0.8 0.2-1.6 1.6-0.5 3.2-0.9zm0.3-1.5q0.9-0.2 1.8-0.3 0.1 1.1 0.2 2.3-1.2-0.2-2.4-0.4-0.1-0.9 0.4-1.6zm-11.8 9.9c1.1-0.2 1.7-1 2-2q1.6-0.3 2-1.9c1.1-0.2 1.8-0.7 2.1-1.8q1-0.1 1.9-0.1c0.3 2.2 4.2 3.4 1.7 6.5-0.8 0.9 1 1.2 1.8 1.5 1.8 0.6 2.2 2 2.3 3.7-4.2 1.3-7.7 3.2-9 8-1.3 4.4-5.3 3.7-8.7 3.8 0-1.7 0.5-2.6 2.5-3 2.8-0.6 2.7-1 0.6-3.4-0.4-0.5-0.8-1-1.1-1.5 3.5-1.4 3.5-1.4 2.7-4.4-0.3-1.3-0.6-2.5-0.9-3.8q0.1-0.8 0.1-1.6zm13.8-7.9c2.1 0.8 4.2 1.5 6.3 2.4 1.5 0.6 3 1.6 2 3.5-0.8 1.7-2.2 3.2-4.4 3.1-0.5 0-1.2-0.4-1.5-0.9-1.9-2.3-2.6-5.1-2.4-8.1zm1.9 19.7c-1.5-0.9-1.9-2.3-1.9-3.9 1.6 0.8 1.9 2.3 1.9 3.9zm7.9 0q-1-1-2-2 1 1 2 2zm-432.3-129.7l-0.8-0.4 0.4-0.4zm-7.9-2q1-0.9 2-1.9-1 1-2 1.9zm414.6 161.1c-0.9-0.5-1.7-1.2-1.3-2.3 0.1-0.4 0.9-1 1.4-1 0.8 0.1 1 0.8 0.6 1.5-0.2 0.6-0.5 1.2-0.7 1.9zm-11.8-2c0.6 0.1 1.2 0.1 1.8 0.2 0.3 0.1 0.7 0.4 0.7 0.5-0.1 0.8-0.6 1.1-1.3 0.6-0.5-0.3-0.8-0.9-1.2-1.3zm0 0q-2-1 0-2 0 1 0 2zm-32.6 48.2c-0.3 0.5-0.5 1.1-0.9 1.5-0.5 0.5-1.2 0.3-1.3-0.5 0-0.4 0.4-1.2 0.7-1.4 0.4-0.1 1 0.3 1.5 0.4zm44.4-77.7c-0.3-0.1-0.8-0.3-0.8-0.4 0.1-0.7 0.5-0.6 0.8 0.4z"/>
</svg>