<svg width="72.06875px" height="130.39999999999998px" xmlns="http://www.w3.org/2000/svg" viewBox="213.965625 9.800000000000011 72.06875 130.39999999999998" style="background: rgba(0, 0, 0, 0);" preserveAspectRatio="xMidYMid"><defs><linearGradient id="editing-shiny-gradient" x1="0.7649596321166026" x2="0.2350403678833975" y1="0.9240240480782129" y2="0.07597595192178702" gradientUnits="objectBoundingBox"><stop offset="0.0" stop-color="#e10057"></stop><stop offset="0.5" stop-color="#e10057"></stop><stop offset="1.0" stop-color="#e10057"></stop></linearGradient><linearGradient id="editing-shiny-gradient2" x1="0" x2="0" y1="0" y2="1"><stop offset="0.2" stop-color="#fff" stop-opacity="0.8"></stop><stop offset="0.8" stop-color="#fff" stop-opacity="0"></stop></linearGradient><filter id="editing-shiny2" x="-100%" y="-100%" width="300%" height="300%"><feMorphology operator="erode" radius="2"></feMorphology></filter><filter id="editing-shiny" x="-100%" y="-100%" width="300%" height="300%"><feFlood flood-color="#fff" result="flood"></feFlood><feConvolveMatrix in="SourceGraphic" result="conv" order="8,8" divisor="1" kernelMatrix="0 0 0 0 0 0 0 0 0 0 0 1 1 0 0 0 0 0 0 1 1 0 0 0 0 0 1 0 0 1 0 0 0 0 1 0 0 1 0 0 0 1 0 0 0 0 1 0 0 1 1 0 0 1 1 0 0 0 0 1 1 0 0 0 "></feConvolveMatrix><feOffset dx="0" dy="4" in="conv" result="offset"></feOffset><feComposite operator="in" in="flood" in2="offset" result="comp"></feComposite><feGaussianBlur in="offset" stdDeviation="3" result="shadow"></feGaussianBlur><feColorMatrix in="shadow" type="matrix" values="0.7 0 0 0 0  0 0.7 0 0 0  0 0 0.7 0 0  0 0 0 0.3 0" result="dark-shadow"></feColorMatrix><feOffset dx="0" dy="4" in="dark-shadow" result="offset-shadow"></feOffset><feOffset dx="0" dy="2" in="conv" result="offset-2"></feOffset><feComposite operator="out" in="offset" in2="offset-2" result="edge-diff"></feComposite><feGaussianBlur in="edge-diff" stdDeviation="1" result="edge-blur"></feGaussianBlur><feColorMatrix in="edge-blur" result="edge-shadow" type="matrix" values="0 0 0 0 0  0 0 0 0 0  0 0 0 0 0  0 0 0 0.5 0"></feColorMatrix><feComposite operator="in" in="edge-shadow" in2="offset" result="edge-shadow-in"></feComposite><feOffset dx="0" dy="1" in="edge-shadow-in" result="edge-shadow-final"></feOffset><feMerge result="out"><feMergeNode in="offset-shadow"></feMergeNode><feMergeNode in="comp"></feMergeNode><feMergeNode in="edge-shadow-final"></feMergeNode><feMergeNode in="SourceGraphic"></feMergeNode></feMerge></filter></defs><g filter="url(#editing-shiny)"><g transform="translate(230.87500929832458, 92.75500106811523)"><path d="M1.91-24.78L1.91-24.78L1.91-24.78Q1.91-34.88 18.19-34.88L18.19-34.88L18.19-34.88Q35.31-34.88 35.31-25.91L35.31-25.91L35.31-25.91Q35.31-25.09 34.78-24.55L34.78-24.55L34.78-24.55Q34.25-24 33.41-24L33.41-24L28.75-24L28.75-24Q26.50-24 24.97-25.89L24.97-25.89L24.97-25.89Q23.44-27.78 18.94-27.78L18.94-27.78L18.94-27.78Q12.75-27.78 12.75-24.78L12.75-24.78L12.75-24.78Q12.75-23.38 15.17-22.44L15.17-22.44L15.17-22.44Q17.59-21.50 21.08-20.80L21.08-20.80L21.08-20.80Q24.56-20.09 28.03-19L28.03-19L28.03-19Q31.50-17.91 33.92-15.52L33.92-15.52L33.92-15.52Q36.34-13.13 36.34-9.47L36.34-9.47L36.34-9.47Q36.34 0.63 19.16 0.63L19.16 0.63L19.16 0.63Q1.97 0.63 1.97-8.31L1.97-8.31L1.97-8.31Q1.97-9.16 2.52-9.70L2.52-9.70L2.52-9.70Q3.06-10.25 3.91-10.25L3.91-10.25L8.56-10.25L8.56-10.25Q10.81-10.25 12.34-8.36L12.34-8.36L12.34-8.36Q13.88-6.47 18.38-6.47L18.38-6.47L18.38-6.47Q25.53-6.47 25.53-9.47L25.53-9.47L25.53-9.47Q25.53-10.88 23.11-11.81L23.11-11.81L23.11-11.81Q20.69-12.75 17.19-13.48L17.19-13.48L17.19-13.48Q13.69-14.22 10.23-15.30L10.23-15.30L10.23-15.30Q6.78-16.38 4.34-18.78L4.34-18.78L4.34-18.78Q1.91-21.19 1.91-24.78Z" fill="url(#editing-shiny-gradient)"></path></g></g><g filter="url(#editing-shiny2)"><g transform="translate(230.8749978542328, 92.75500106811523)"><path d="M1.91-24.78L1.91-24.78L1.91-24.78Q1.91-34.88 18.19-34.88L18.19-34.88L18.19-34.88Q35.31-34.88 35.31-25.91L35.31-25.91L35.31-25.91Q35.31-25.09 34.78-24.55L34.78-24.55L34.78-24.55Q34.25-24 33.41-24L33.41-24L28.75-24L28.75-24Q26.50-24 24.97-25.89L24.97-25.89L24.97-25.89Q23.44-27.78 18.94-27.78L18.94-27.78L18.94-27.78Q12.75-27.78 12.75-24.78L12.75-24.78L12.75-24.78Q12.75-23.38 15.17-22.44L15.17-22.44L15.17-22.44Q17.59-21.50 21.08-20.80L21.08-20.80L21.08-20.80Q24.56-20.09 28.03-19L28.03-19L28.03-19Q31.50-17.91 33.92-15.52L33.92-15.52L33.92-15.52Q36.34-13.13 36.34-9.47L36.34-9.47L36.34-9.47Q36.34 0.63 19.16 0.63L19.16 0.63L19.16 0.63Q1.97 0.63 1.97-8.31L1.97-8.31L1.97-8.31Q1.97-9.16 2.52-9.70L2.52-9.70L2.52-9.70Q3.06-10.25 3.91-10.25L3.91-10.25L8.56-10.25L8.56-10.25Q10.81-10.25 12.34-8.36L12.34-8.36L12.34-8.36Q13.88-6.47 18.38-6.47L18.38-6.47L18.38-6.47Q25.53-6.47 25.53-9.47L25.53-9.47L25.53-9.47Q25.53-10.88 23.11-11.81L23.11-11.81L23.11-11.81Q20.69-12.75 17.19-13.48L17.19-13.48L17.19-13.48Q13.69-14.22 10.23-15.30L10.23-15.30L10.23-15.30Q6.78-16.38 4.34-18.78L4.34-18.78L4.34-18.78Q1.91-21.19 1.91-24.78Z" fill="url(#editing-shiny-gradient2)"></path></g></g><style>text {
  font-size: 64px;
  font-family: Arial Black;
  dominant-baseline: central;
  text-anchor: middle;
}</style></svg>